<?xml version="1.0" encoding="utf-8"?>
<!-- Generator: Adobe Illustrator 27.5.0, SVG Export Plug-In . SVG Version: 6.00 Build 0)  -->
<svg version="1.1" xmlns="http://www.w3.org/2000/svg" xmlns:xlink="http://www.w3.org/1999/xlink" x="0px" y="0px"
	 viewBox="0 0 500 500" style="enable-background:new 0 0 500 500;" xml:space="preserve">
<g id="Background_Complete">
	<g>
		<g>
			<g>
				<g>
					<path style="fill:#F5F5F5;" d="M438.311,115.786c0.798-1.174,1.143-2.62,1.117-4.039c-0.025-1.39-0.407-2.799-1.243-3.91
						c-0.888-1.18-2.276-1.971-3.744-2.132c-0.873-0.096-1.767,0.031-2.584,0.352c0.145-0.784,0.122-1.6-0.082-2.372
						c-0.376-1.428-1.363-2.685-2.661-3.389c-1.222-0.663-2.672-0.833-4.05-0.652c-1.407,0.185-2.787,0.738-3.83,1.701
						c-1.306,1.206-2.31,2.893-2.61,4.645c-0.318,1.85,0.018,3.855,0.603,5.638c0.985,2.999,2.349,6.868,2.349,6.868
						s3.748,0.26,6.86,0.792c1.85,0.316,3.882,0.353,5.665-0.235C435.79,118.497,437.311,117.256,438.311,115.786z"/>
				</g>
			</g>
		</g>
	</g>
	<g>
		<g>
			<g>
				<g>
					<path style="fill:#E0E0E0;" d="M117.314,292.527c4.95-2.991,10.22-5.259,15.655-6.803l3.225-15.495l26.179-0.459l3.768,15.37
						c5.486,1.352,10.833,3.433,15.885,6.249l13.231-8.673l18.837,18.188l-8.201,13.525c2.992,4.952,5.26,10.223,6.803,15.658
						l15.493,3.225l0.46,26.179l-15.371,3.769c-1.352,5.485-3.434,10.83-6.249,15.883l8.671,13.232l-18.185,18.837l-13.527-8.202
						c-4.951,2.992-10.221,5.259-15.657,6.802l-3.225,15.495l-26.179,0.459l-3.768-15.372c-5.486-1.352-10.831-3.434-15.884-6.25
						l-13.231,8.673l-18.837-18.187l8.201-13.526c-2.992-4.95-5.261-10.22-6.804-15.656l-15.494-3.224l-0.459-26.179l15.372-3.769
						c1.351-5.485,3.435-10.831,6.249-15.883L85.6,303.162l18.186-18.837L117.314,292.527L117.314,292.527z M131.27,327.402
						c-10.776,11.161-10.463,28.943,0.698,39.717c11.16,10.775,28.942,10.461,39.716-0.699c10.774-11.16,10.463-28.943-0.698-39.716
						C159.826,315.93,142.045,316.243,131.27,327.402z"/>
				</g>
			</g>
		</g>
	</g>
	<g>
		<g>
			<g>
				<g>
					<path style="fill:#E0E0E0;" d="M355.615,157.753c3.51-2.121,7.247-3.729,11.101-4.824l2.287-10.988l18.564-0.325l2.672,10.9
						c3.89,0.958,7.682,2.434,11.264,4.432l9.382-6.15l13.358,12.897l-5.816,9.591c2.122,3.512,3.73,7.25,4.824,11.104l10.987,2.287
						l0.326,18.564l-10.9,2.673c-0.958,3.89-2.435,7.68-4.431,11.263l6.149,9.383l-12.895,13.358l-9.592-5.816
						c-3.511,2.122-7.248,3.729-11.103,4.824l-2.287,10.988l-18.564,0.325l-2.672-10.9c-3.89-0.959-7.681-2.435-11.263-4.432
						l-9.383,6.15l-13.358-12.897l5.816-9.592c-2.121-3.51-3.73-7.247-4.825-11.102l-10.987-2.286l-0.326-18.564l10.901-2.673
						c0.958-3.89,2.436-7.681,4.431-11.263l-6.15-9.383l12.896-13.357L355.615,157.753L355.615,157.753z M365.512,182.484
						c-7.641,7.914-7.419,20.524,0.495,28.165c7.914,7.641,20.523,7.418,28.164-0.496c7.64-7.914,7.419-20.524-0.495-28.164
						C385.761,174.348,373.153,174.57,365.512,182.484z"/>
				</g>
			</g>
		</g>
	</g>
	<g>
		<g>
			<g>
				<g>
					<path style="fill:#E0E0E0;" d="M224.907,45.911c2.821-1.705,5.824-2.997,8.921-3.877l1.838-8.831l14.919-0.261l2.147,8.759
						c3.126,0.77,6.173,1.957,9.053,3.561l7.54-4.943l10.735,10.365l-4.674,7.708c1.705,2.822,2.998,5.826,3.877,8.924l8.829,1.838
						l0.262,14.919l-8.76,2.148c-0.77,3.126-1.957,6.172-3.561,9.051l4.942,7.541l-10.363,10.735l-7.709-4.674
						c-2.822,1.705-5.825,2.997-8.923,3.877l-1.838,8.83l-14.919,0.262l-2.147-8.76c-3.126-0.771-6.172-1.957-9.052-3.562
						l-7.54,4.943l-10.735-10.365l4.674-7.708c-1.705-2.821-2.998-5.824-3.877-8.922l-8.83-1.838l-0.262-14.919l8.76-2.148
						c0.77-3.126,1.957-6.173,3.561-9.051l-4.942-7.541l10.364-10.735L224.907,45.911L224.907,45.911z M232.861,65.786
						c-6.141,6.36-5.963,16.494,0.398,22.634c6.36,6.14,16.493,5.962,22.634-0.398c6.14-6.36,5.963-16.494-0.398-22.634
						C249.134,59.248,239.001,59.426,232.861,65.786z"/>
				</g>
			</g>
		</g>
	</g>
	<g>
		<g>
			<g>
				<g>
					<path style="fill:#F5F5F5;" d="M308.974,28.839c1.934-1.169,3.993-2.055,6.116-2.658l1.26-6.054l10.228-0.179l1.472,6.005
						c2.143,0.528,4.232,1.341,6.206,2.441l5.169-3.388l7.359,7.106l-3.204,5.284c1.169,1.935,2.055,3.994,2.658,6.117l6.053,1.26
						L352.47,55l-6.005,1.472c-0.528,2.143-1.342,4.231-2.441,6.205l3.388,5.169l-7.104,7.36l-5.285-3.204
						c-1.934,1.169-3.993,2.055-6.117,2.658l-1.26,6.054l-10.228,0.179l-1.472-6.005c-2.143-0.528-4.232-1.342-6.205-2.442
						l-5.169,3.388l-7.359-7.105l3.204-5.285c-1.169-1.934-2.055-3.993-2.658-6.117l-6.053-1.26l-0.179-10.228l6.005-1.472
						c0.528-2.143,1.342-4.232,2.441-6.205l-3.388-5.169l7.105-7.359L308.974,28.839L308.974,28.839z M314.426,42.464
						c-4.21,4.36-4.088,11.307,0.273,15.517c4.36,4.209,11.307,4.087,15.516-0.273c4.209-4.36,4.088-11.307-0.273-15.517
						C325.582,37.982,318.636,38.104,314.426,42.464z"/>
				</g>
			</g>
		</g>
	</g>
	<g>
		<g>
			<g>
				<g>
					<path style="fill:#F5F5F5;" d="M95.127,113.108c1.206-0.729,2.49-1.281,3.814-1.658l0.786-3.775l6.378-0.112l0.918,3.745
						c1.337,0.329,2.639,0.836,3.87,1.522l3.224-2.113l4.589,4.431l-1.998,3.295c0.729,1.206,1.281,2.491,1.657,3.815l3.775,0.786
						l0.112,6.378l-3.745,0.918c-0.329,1.336-0.837,2.639-1.522,3.87l2.113,3.224l-4.43,4.589l-3.296-1.998
						c-1.206,0.729-2.49,1.281-3.814,1.657l-0.786,3.775l-6.378,0.112l-0.918-3.745c-1.337-0.329-2.639-0.837-3.87-1.523
						l-3.224,2.113l-4.589-4.431l1.998-3.295c-0.729-1.206-1.282-2.49-1.658-3.814l-3.775-0.786l-0.112-6.378l3.745-0.918
						c0.329-1.336,0.837-2.639,1.522-3.87l-2.113-3.224l4.431-4.589L95.127,113.108L95.127,113.108z M98.527,121.605
						c-2.625,2.719-2.549,7.051,0.17,9.676c2.719,2.625,7.051,2.549,9.676-0.17c2.625-2.719,2.549-7.051-0.17-9.676
						C105.484,118.81,101.152,118.886,98.527,121.605z"/>
				</g>
			</g>
		</g>
	</g>
	<g>
		<g>
			<g>
				<g>
					<path style="fill:#F5F5F5;" d="M41.339,170.733c2.406-1.454,4.968-2.556,7.61-3.307l1.568-7.532l12.726-0.223l1.832,7.472
						c2.667,0.657,5.266,1.669,7.722,3.038l6.432-4.216l9.157,8.841l-3.987,6.574c1.455,2.407,2.557,4.97,3.307,7.612l7.531,1.567
						l0.224,12.726l-7.472,1.832c-0.657,2.666-1.669,5.265-3.038,7.721l4.215,6.432l-8.84,9.157l-6.575-3.987
						c-2.407,1.454-4.969,2.556-7.611,3.307l-1.568,7.532l-12.726,0.223l-1.832-7.472c-2.667-0.657-5.265-1.669-7.721-3.038
						l-6.432,4.216l-9.157-8.841l3.987-6.575c-1.454-2.406-2.557-4.968-3.307-7.611l-7.532-1.567l-0.223-12.726l7.472-1.832
						c0.657-2.666,1.67-5.265,3.037-7.721l-4.215-6.432l8.84-9.157L41.339,170.733L41.339,170.733z M48.123,187.686
						c-5.238,5.425-5.086,14.069,0.339,19.307c5.425,5.238,14.069,5.085,19.306-0.34c5.237-5.425,5.086-14.069-0.339-19.306
						C62.004,182.109,53.36,182.261,48.123,187.686z"/>
				</g>
			</g>
		</g>
	</g>
	<g>
		<g>
			<g>
				<g>
					<path style="fill:#F5F5F5;" d="M426.813,307.89c1.973-1.192,4.073-2.096,6.239-2.711l1.285-6.175l10.433-0.183l1.502,6.126
						c2.186,0.539,4.317,1.368,6.331,2.49l5.273-3.456l7.507,7.248l-3.268,5.39c1.193,1.974,2.096,4.074,2.711,6.24l6.174,1.285
						l0.183,10.433l-6.126,1.502c-0.539,2.186-1.368,4.316-2.49,6.33l3.456,5.273l-7.247,7.507l-5.391-3.269
						c-1.973,1.192-4.073,2.096-6.24,2.711l-1.285,6.175l-10.433,0.183l-1.502-6.126c-2.186-0.539-4.316-1.369-6.33-2.491
						l-5.273,3.457l-7.507-7.248l3.269-5.39c-1.192-1.973-2.096-4.073-2.712-6.24l-6.175-1.285l-0.183-10.433l6.126-1.502
						c0.539-2.186,1.369-4.316,2.49-6.33l-3.456-5.273l7.247-7.507L426.813,307.89L426.813,307.89z M432.375,321.789
						c-4.294,4.448-4.17,11.534,0.278,15.828c4.447,4.294,11.534,4.169,15.828-0.279c4.294-4.448,4.17-11.534-0.278-15.828
						C443.755,317.216,436.669,317.341,432.375,321.789z"/>
				</g>
			</g>
		</g>
	</g>
	<g>
		<g>
			<g>
				<g>
					<path style="fill:#F5F5F5;" d="M231.278,398.536c2.78-1.68,5.74-2.954,8.792-3.821l1.811-8.702l14.703-0.258l2.116,8.632
						c3.081,0.759,6.084,1.928,8.921,3.51l7.431-4.871l10.579,10.215l-4.606,7.596c1.681,2.781,2.954,5.742,3.821,8.794l8.701,1.811
						l0.258,14.703l-8.633,2.116c-0.759,3.081-1.928,6.083-3.509,8.92l4.87,7.431l-10.213,10.579l-7.597-4.606
						c-2.781,1.68-5.74,2.954-8.793,3.82l-1.811,8.702l-14.702,0.258l-2.116-8.633c-3.081-0.759-6.083-1.929-8.921-3.51
						l-7.431,4.871l-10.579-10.214l4.606-7.596c-1.68-2.78-2.954-5.74-3.821-8.793l-8.702-1.811l-0.258-14.703l8.633-2.117
						c0.759-3.081,1.929-6.083,3.509-8.92l-4.87-7.431l10.213-10.579L231.278,398.536L231.278,398.536z M239.116,418.122
						c-6.052,6.268-5.876,16.255,0.392,22.306c6.268,6.051,16.254,5.875,22.305-0.392c6.051-6.268,5.876-16.255-0.392-22.305
						C255.153,411.679,245.167,411.855,239.116,418.122z"/>
				</g>
			</g>
		</g>
	</g>
	<g>
		<g>
			<g>
				<g>
					<g>
						<path style="fill:#E0E0E0;" d="M333.994,458.234c-2.366,2.262-6.117,2.178-8.38-0.187c-2.262-2.366-2.178-6.118,0.187-8.38
							c2.366-2.262,6.117-2.178,8.38,0.187C336.443,452.22,336.359,455.972,333.994,458.234z"/>
					</g>
				</g>
			</g>
		</g>
		<g>
			<g>
				<g>
					<g>
						<g>
							<path style="fill:#E0E0E0;" d="M334.825,456.249c-0.359-0.053,0.526-6.239,2.946-13.486
								c2.431-7.219,4.426-13.006,4.742-12.932c0.386,0.094-1.077,6.138-3.5,13.333
								C336.613,450.351,335.179,456.309,334.825,456.249z"/>
						</g>
					</g>
				</g>
			</g>
		</g>
		<g>
			<g>
				<g>
					<g>
						<g>
							<path style="fill:#E0E0E0;" d="M354.793,433.208c0.145,0.308-2.963,1.535-6.805,0.599c-3.853-0.898-6.073-3.396-5.805-3.605
								c0.246-0.297,2.623,1.538,6.107,2.336C351.758,433.398,354.708,432.832,354.793,433.208z"/>
						</g>
					</g>
				</g>
			</g>
		</g>
		<g>
			<g>
				<g>
					<g>
						<g>
							<path style="fill:#E0E0E0;" d="M352.537,438.93c0.183,0.299-2.861,1.652-6.547,0.471c-3.701-1.139-5.424-3.989-5.103-4.13
								c0.29-0.25,2.231,1.901,5.493,2.885C349.619,439.213,352.443,438.559,352.537,438.93z"/>
						</g>
					</g>
				</g>
			</g>
		</g>
	</g>
	<g>
		<path style="fill:#F5F5F5;" d="M179.551,457.922l0.857,3.435l-13.768,3.436l-0.682-2.733l5.37-8.391
			c0.568-0.897,0.92-1.634,1.052-2.211c0.133-0.576,0.136-1.116,0.01-1.62c-0.182-0.729-0.568-1.227-1.16-1.494
			c-0.592-0.267-1.366-0.281-2.319-0.043c-0.798,0.199-1.481,0.531-2.047,0.995c-0.566,0.463-0.991,1.053-1.272,1.768l-3.565-1.212
			c0.447-1.234,1.22-2.309,2.32-3.219c1.1-0.911,2.456-1.568,4.07-1.97c1.354-0.338,2.593-0.412,3.718-0.223
			c1.125,0.188,2.07,0.617,2.836,1.283c0.765,0.666,1.284,1.546,1.557,2.639c0.247,0.989,0.27,1.97,0.071,2.941
			c-0.2,0.971-0.76,2.162-1.68,3.572l-3.202,5.001L179.551,457.922z"/>
	</g>
</g>
<g id="Background_Simple" style="display:none;">
	<g style="display:inline;">
		<path style="fill:#F5F5F5;" d="M459.542,119.042l-0.852,1.405c-7.186,11.842-20.179,18.981-33.878,18.115
			c-1.761-0.111-3.514-0.35-5.244-0.72c-12.455-2.666-23.292-12.085-27.784-24.147c-2.642-7.094-3.38-15.262-8.393-20.893
			c-6.525-7.328-17.602-7.558-27.341-7.255c-9.739,0.304-20.824,0.045-27.317-7.313c-4.066-4.608-5.359-11.16-5.031-17.331
			c0.868-16.337,12.252-30.945,26.73-38.206c14.478-7.261,31.524-7.911,47.369-4.717c22.197,4.474,43.306,16.763,55.994,35.742
			S469.694,98.557,459.542,119.042z"/>
	</g>
	<g style="display:inline;">
		<path style="fill:#F5F5F5;" d="M18.814,381.301l0.852-1.405c7.186-11.842,20.179-18.981,33.878-18.115
			c1.761,0.111,3.514,0.35,5.244,0.72c12.455,2.666,23.292,12.085,27.784,24.147c2.642,7.094,3.38,15.262,8.393,20.893
			c6.525,7.329,17.602,7.559,27.341,7.255c9.739-0.304,20.824-0.045,27.317,7.313c4.066,4.608,5.359,11.16,5.031,17.331
			c-0.868,16.337-12.252,30.945-26.73,38.206c-14.478,7.261-31.524,7.911-47.369,4.717c-22.197-4.474-43.306-16.763-55.994-35.742
			C11.873,427.642,8.662,401.785,18.814,381.301z"/>
	</g>
	<g style="display:inline;">
		
			<ellipse transform="matrix(0.2329 -0.9725 0.9725 0.2329 -83.4034 755.3318)" style="fill:#F5F5F5;" cx="437.098" cy="430.535" rx="31.774" ry="31.774"/>
	</g>
	<g style="display:inline;">
		
			<ellipse transform="matrix(0.9136 -0.4067 0.4067 0.9136 -17.8109 34.7006)" style="fill:#F5F5F5;" cx="72.74" cy="59.257" rx="31.774" ry="31.774"/>
	</g>
</g>
<g id="Symbol">
	<g>
		<g>
			<path style="fill:#FF725E;" d="M100.84,366.345c-0.809,4.684-5.262,7.826-9.946,7.016c-4.684-0.809-7.825-5.262-7.016-9.947
				c0.809-4.684,5.262-7.826,9.946-7.016C98.508,357.208,101.649,361.661,100.84,366.345z"/>
		</g>
		<g>
			<path style="fill:#FF725E;" d="M94.181,404.897c-0.809,4.684-5.262,7.826-9.946,7.016c-4.684-0.809-7.826-5.262-7.016-9.947
				c0.809-4.684,5.262-7.825,9.947-7.016C91.848,395.76,94.99,400.213,94.181,404.897z"/>
		</g>
		<g>
			
				<rect x="60.801" y="377.892" transform="matrix(0.9854 0.1702 -0.1702 0.9854 66.489 -9.5774)" style="fill:#FF725E;" width="56.598" height="10.172"/>
		</g>
	</g>
</g>
<g id="Puzzle_pieces">
	<g>
		<g>
			<path style="fill:#FF725E;" d="M191.594,81.833c-2.072-0.129-3.927,1.276-4.983,2.29c-0.666,0.639-1.577,0.956-2.498,0.899
				c-1.848-0.115-3.571-1.514-3.456-3.362l0.863-20.273l-19.185-0.817c-1.643,0.13-2.863,1.705-2.981,3.414
				c-0.063,0.921,0.248,1.834,0.883,2.504c1.007,1.063,2.4,2.927,2.258,4.998c-0.22,3.21-2.942,5.278-6.58,5.029
				c-3.638-0.249-6.053-2.669-5.833-5.879c0.142-2.071,1.776-3.728,2.919-4.643c0.721-0.577,1.153-1.439,1.216-2.36
				c0.12-1.756-1.14-3.273-2.85-3.529l-19.89-0.847l-0.7,21.227c-0.115,1.848-1.706,3.253-3.554,3.138
				c-0.922-0.057-1.786-0.484-2.368-1.201c-0.922-1.136-2.59-2.76-4.661-2.889c-3.211-0.2-5.616,2.23-5.842,5.87
				c-0.226,3.64,1.859,6.349,5.07,6.548c2.072,0.129,3.927-1.276,4.983-2.29c0.666-0.639,1.577-0.956,2.499-0.899
				c1.848,0.115,3.253,1.706,3.138,3.554l-1.428,22.705l50.531,2.151l1.095-23.873c0.115-1.848,1.706-3.253,3.554-3.138
				c0.922,0.057,1.786,0.484,2.368,1.201c0.923,1.137,2.59,2.761,4.662,2.89c3.211,0.2,5.616-2.23,5.842-5.87
				C196.89,84.741,194.805,82.032,191.594,81.833z"/>
		</g>
		<g style="opacity:0.3;">
			<path d="M146.457,115.779c-0.017-0.001,4.992-7.976,11.199-9.354c3.425-0.76,6.325-1.733,8.711-2.727
				c4.215-1.756,8.001-4.396,11.193-7.661l2.679-2.74v17.579l-17.995,6.293L146.457,115.779z"/>
		</g>
	</g>
	<g>
		<path style="fill:#455A64;" d="M53.071,217.271c-1.265-0.131-2.401-0.973-2.834-2.257c-0.295-0.875-0.226-1.837,0.218-2.646
			c0.704-1.283,1.578-3.44,0.916-5.407c-1.028-3.049-4.185-4.358-7.641-3.193c-3.456,1.165-5.177,4.118-4.149,7.167
			c0.663,1.967,2.665,3.155,4.002,3.75c0.843,0.375,1.481,1.099,1.775,1.974c0.435,1.29,0.196,2.773-0.654,3.707l-1.675,0.619
			l-21.534,7.991l7.04,19.123c0.608,1.757,2.746,2.387,4.503,1.779c0.876-0.303,1.598-0.949,1.968-1.799
			c0.587-1.348,1.764-3.368,3.733-4.049c3.053-1.057,6.033,0.647,7.231,4.108c1.198,3.461-0.091,6.642-3.145,7.699
			c-1.97,0.682-4.143-0.179-5.438-0.875c-0.817-0.44-1.783-0.501-2.659-0.198c-1.757,0.608-2.689,2.525-2.081,4.283l8.217,22.549
			l31.729-11.68l18.615-6.853l2.292-0.843l-7.456-21.596c-0.608-1.757-2.526-2.689-4.283-2.08c-0.876,0.303-1.598,0.949-1.968,1.799
			c-0.587,1.348-1.763,3.368-3.733,4.049c-3.054,1.057-6.034-0.647-7.231-4.108c-1.198-3.461,0.091-6.643,3.145-7.699
			c1.97-0.682,4.143,0.179,5.437,0.876c0.817,0.439,1.783,0.501,2.66,0.198c1.757-0.608,2.688-2.525,2.08-4.283l-7.598-20.044
			L53.071,217.271z"/>
	</g>
</g>
<g id="Pencil">
	<g>
		<path style="fill:#455A64;" d="M423.553,420.03l-9.418-25.535l-88.491-77.767L306.5,335.872l88.181,79.945l26.181,7.071
			C422.424,423.309,424.104,421.524,423.553,420.03z"/>
		<path style="fill:#FFBF9D;" d="M414.136,394.495c-1.324,0.413-2.28,1.684-1.852,2.838c-2.034-0.996-4.969-0.394-6.96,1.427
			s-2.888,4.726-2.128,6.887c-2.382-0.111-5.047,1.174-6.722,3.243c-1.675,2.068-2.295,4.838-1.564,6.986l26.027,7.031
			c1.534,0.414,3.184-1.339,2.643-2.806L414.136,394.495z"/>
		<path style="fill:#263238;" d="M412.763,420.88c0,0-1.273-6.105,7.97-9.058l3.737,10.133c0.321,0.87-0.657,1.909-1.566,1.664
			L412.763,420.88z"/>
		<path style="opacity:0.3;" d="M394.681,415.816l0.228,0.06c0,0-0.503-1.225-0.243-2.939c0.174-1.147,0.674-2.573,1.673-3.876
			c1.287-1.676,2.903-2.614,4.253-3.049c1.457-0.469,2.602-0.366,2.602-0.366l-87.292-79.179l-9.403,9.403L394.681,415.816z"/>
		<path style="opacity:0.3;" d="M414.136,394.495l-88.491-77.767l-2.489,2.489l89.128,78.117c-0.039-0.163-0.109-0.306-0.107-0.455
			C412.203,395.018,414.136,394.495,414.136,394.495z"/>
	</g>
</g>
<g id="Numbers">
	<g>
		<path style="fill:#263238;" d="M73.491,328.697c0.775,0.716,1.302,1.636,1.583,2.758c0.331,1.327,0.242,2.578-0.266,3.755
			c-0.507,1.178-1.377,2.208-2.609,3.089c-1.232,0.882-2.746,1.547-4.54,1.994c-1.796,0.449-3.439,0.57-4.931,0.369
			c-1.491-0.202-2.732-0.705-3.724-1.509c-0.991-0.803-1.652-1.867-1.983-3.194c-0.28-1.122-0.247-2.182,0.101-3.178
			c0.347-0.997,0.975-1.89,1.883-2.68c-0.918-0.291-1.684-0.755-2.298-1.392c-0.614-0.638-1.041-1.437-1.28-2.396
			c-0.311-1.242-0.234-2.411,0.23-3.503c0.465-1.09,1.257-2.041,2.376-2.852c1.12-0.81,2.486-1.416,4.097-1.819
			c1.631-0.407,3.137-0.517,4.516-0.331c1.38,0.187,2.531,0.653,3.453,1.397c0.922,0.746,1.54,1.741,1.85,2.985
			c0.239,0.959,0.238,1.865-0.005,2.716c-0.242,0.852-0.711,1.623-1.404,2.316C71.732,327.489,72.716,327.98,73.491,328.697z
			 M60.815,323.1c-0.483,0.63-0.619,1.363-0.41,2.2c0.203,0.817,0.66,1.385,1.368,1.705c0.709,0.322,1.573,0.356,2.594,0.101
			c1.019-0.254,1.777-0.692,2.271-1.314c0.495-0.621,0.641-1.34,0.438-2.157c-0.209-0.837-0.68-1.417-1.411-1.745
			c-0.731-0.326-1.607-0.362-2.628-0.108C62.037,322.032,61.297,322.47,60.815,323.1z M69.492,335.074
			c0.583-0.742,0.759-1.581,0.524-2.519c-0.234-0.938-0.783-1.594-1.643-1.963c-0.862-0.369-1.916-0.4-3.159-0.09
			c-1.225,0.306-2.124,0.824-2.701,1.553c-0.577,0.729-0.747,1.563-0.513,2.501c0.239,0.959,0.784,1.624,1.635,1.997
			c0.852,0.372,1.889,0.406,3.114,0.1C67.992,336.342,68.907,335.817,69.492,335.074z"/>
	</g>
	<g>
		<path style="fill:#263238;" d="M86.51,92.491l0.857,3.435l-13.768,3.436l-0.682-2.733l5.37-8.391
			c0.568-0.897,0.92-1.634,1.052-2.211c0.133-0.576,0.136-1.116,0.01-1.62c-0.181-0.729-0.568-1.227-1.16-1.494
			c-0.592-0.267-1.366-0.281-2.319-0.043c-0.798,0.199-1.481,0.532-2.047,0.995c-0.566,0.463-0.991,1.053-1.272,1.769l-3.565-1.212
			c0.447-1.235,1.22-2.309,2.32-3.219c1.1-0.911,2.457-1.568,4.071-1.97c1.354-0.338,2.593-0.412,3.718-0.223
			c1.125,0.188,2.07,0.617,2.836,1.283c0.765,0.666,1.284,1.546,1.557,2.639c0.247,0.989,0.27,1.97,0.071,2.941
			c-0.2,0.971-0.76,2.162-1.68,3.572l-3.202,5.001L86.51,92.491z"/>
	</g>
</g>
<g id="Musical_notes">
	<g>
		<g>
			<g>
				<g>
					<g>
						<path style="fill:#263238;" d="M417.661,158.284c-2.827,1.65-6.456,0.697-8.107-2.13c-1.65-2.827-0.697-6.456,2.13-8.107
							c2.827-1.65,6.456-0.697,8.107,2.13C421.441,153.004,420.488,156.634,417.661,158.284z"/>
					</g>
				</g>
			</g>
		</g>
		<g>
			<g>
				<g>
					<g>
						<g>
							<path style="fill:#263238;" d="M418.932,156.546c-0.337-0.136,1.962-5.946,6-12.432c4.042-6.456,7.328-11.621,7.618-11.476
								c0.354,0.182-2.474,5.719-6.503,12.154C422.041,151.226,419.262,156.687,418.932,156.546z"/>
						</g>
					</g>
				</g>
			</g>
		</g>
		<g>
			<g>
				<g>
					<g>
						<g>
							<path style="fill:#263238;" d="M443.708,138.778c0.069,0.333-3.238,0.805-6.758-0.999c-3.539-1.769-5.117-4.714-4.808-4.855
								c0.309-0.232,2.194,2.105,5.397,3.691C440.712,138.257,443.712,138.392,443.708,138.778z"/>
						</g>
					</g>
				</g>
			</g>
		</g>
		<g>
			<g>
				<g>
					<g>
						<g>
							<path style="fill:#263238;" d="M440.184,143.818c0.108,0.334-3.167,0.942-6.478-1.064c-3.335-1.968-4.348-5.141-4.003-5.203
								c0.34-0.176,1.728,2.368,4.672,4.083C437.279,143.415,440.178,143.435,440.184,143.818z"/>
						</g>
					</g>
				</g>
			</g>
		</g>
	</g>
	<g>
		<g>
			<g>
				<g>
					<g>
						<g>
							<g>
								<path style="fill:#263238;" d="M416.546,357.347c-0.382,3.795-3.768,6.562-7.563,6.18c-3.795-0.382-6.562-3.768-6.18-7.563
									c0.382-3.795,3.768-6.562,7.563-6.18C414.161,350.166,416.928,353.552,416.546,357.347z"/>
							</g>
						</g>
					</g>
				</g>
				<g>
					<g>
						<g>
							<g>
								<g>
									<path style="fill:#263238;" d="M415.779,354.958c-0.566,0.352-4.655-5.735-8.008-14.005
										c-3.318-8.242-5.742-14.928-5.19-15.212c0.629-0.319,4.102,6.09,7.401,14.289
										C413.293,348.194,416.345,354.618,415.779,354.958z"/>
								</g>
							</g>
						</g>
					</g>
				</g>
				<g>
					<g>
						<g>
							<g>
								<g>
									<path style="fill:#263238;" d="M424.526,321.389c0.415,0.376-3.382,4.719-10.088,6.679
										c-3.301,0.978-6.572,0.947-8.785,0.283c-2.253-0.628-3.264-1.809-3.083-2.029c0.202-0.315,1.388,0.233,3.403,0.366
										c2.001,0.174,4.809-0.039,7.806-0.923C419.806,324.036,424.068,320.789,424.526,321.389z"/>
								</g>
							</g>
						</g>
					</g>
				</g>
			</g>
			<g>
				<g>
					<g>
						<g>
							<path style="fill:#263238;" d="M438.491,352.995c-0.382,3.795-3.768,6.562-7.563,6.18c-3.795-0.382-6.562-3.768-6.18-7.562
								c0.382-3.795,3.768-6.562,7.563-6.18C436.106,345.814,438.873,349.2,438.491,352.995z"/>
						</g>
					</g>
				</g>
			</g>
			<g>
				<g>
					<g>
						<g>
							<g>
								<path style="fill:#263238;" d="M437.724,350.606c-0.566,0.352-4.655-5.736-8.008-14.004
									c-3.318-8.242-5.742-14.929-5.19-15.213c0.629-0.319,4.102,6.09,7.401,14.289
									C435.238,343.842,438.29,350.266,437.724,350.606z"/>
							</g>
						</g>
					</g>
				</g>
			</g>
			<g>
				<g>
					<g>
						<g>
							<g>
								<path style="fill:#263238;" d="M426.503,325.669c0.508,0.367-2.846,4.753-9.069,6.811
									c-6.205,2.114-11.526,0.64-11.343,0.042c0.086-0.698,5.014-0.392,10.58-2.314
									C422.268,328.383,426.014,325.164,426.503,325.669z"/>
							</g>
						</g>
					</g>
				</g>
			</g>
		</g>
	</g>
</g>
<g id="Heart">
	<g>
		<g>
			<g>
				<g>
					<path style="fill:#FF725E;" d="M396.539,87.1c-0.676-2.589-2.301-4.872-4.347-6.596c-2.004-1.69-4.477-2.895-7.091-3.086
						c-2.777-0.203-5.621,0.786-7.671,2.669c-1.22,1.12-2.147,2.547-2.706,4.105c-0.934-1.179-2.12-2.157-3.467-2.826
						c-2.494-1.237-5.501-1.395-8.111-0.426c-2.457,0.912-4.497,2.759-5.95,4.94c-1.483,2.226-2.409,4.872-2.336,7.546
						c0.091,3.35,1.241,6.867,3.355,9.467c2.232,2.746,5.494,4.756,8.751,6.137c5.478,2.323,12.662,5.184,12.662,5.184
						s5.019-4.998,9.632-8.754c2.744-2.235,5.316-5.074,6.694-8.332C397.26,94.041,397.384,90.342,396.539,87.1z"/>
				</g>
			</g>
		</g>
	</g>
</g>
<g id="Light_bulb">
	<g>
		<g>
			<g>
				<g>
					<g>
						<g>
							<g>
								<g>
									<g>
										<g>
											<g>
												<g>
													<path style="fill:#FF725E;" d="M476.136,238.785c8.995-18.363,1.423-40.063-16.913-48.469
														c-18.336-8.406-40.491-0.333-49.486,18.03c-6.512,13.295-4.335,28.336,4.318,38.817
														c-1.93,3.94-4.109,8.388-4.109,8.388l29.098,13.339c0,0,2.482-4.627,4.605-8.8
														C457.046,259.469,469.828,251.663,476.136,238.785z"/>
												</g>
											</g>
										</g>
									</g>
								</g>
							</g>
						</g>
					</g>
				</g>
			</g>
			<g>
				<g>
					<g>
						<g>
							<path style="fill:#FFFFFF;" d="M421.321,260.448c5.114-10.864,10.951-21.401,15.865-32.355
								c0.993-2.213,1.955-4.445,2.759-6.728c1.009-2.865,1.856-6.175,0.067-8.849c-0.78-1.165-2.025-2.045-3.477-2.136
								c-1.418-0.09-2.776,0.541-3.892,1.392c-2.398,1.829-4.088,4.663-4.982,7.471c-1.828,5.739-0.586,12.039,3.656,16.25
								c4.236,4.205,10.802,5.951,16.667,4.017c5.755-1.898,11.016-7.357,11.645-13.462c0.272-2.636-0.454-6.057-3.281-6.994
								c-2.745-0.91-5.263,1.104-6.934,3.119c-1.933,2.33-3.425,5.087-4.937,7.688c-1.764,3.036-3.442,6.119-5.087,9.217
								c-3.389,6.381-6.624,12.837-10.015,19.217c-0.749,1.409-1.507,2.814-2.278,4.212c-0.26,0.471,0.504,0.786,0.763,0.316
								c6.184-11.203,11.556-22.826,18.086-33.849c1.439-2.43,2.863-5.054,4.841-7.113c0.962-1.001,2.191-1.97,3.602-2.169
								c1.496-0.212,2.846,0.505,3.601,1.75c1.579,2.603,0.804,6.06-0.461,8.688c-1.307,2.714-3.404,5.049-5.933,6.719
								c-5.139,3.395-11.675,3.417-16.786,0.309c-5.018-3.052-7.719-8.594-7.048-14.471c0.321-2.811,1.358-5.571,3.083-7.872
								c1.718-2.292,5.033-5.108,7.736-2.677c2.59,2.328,1.584,6.141,0.556,9.038c-0.713,2.009-1.55,3.979-2.415,5.931
								c-4.506,10.168-9.823,19.982-14.703,29.982c-0.494,1.012-0.982,2.026-1.461,3.045
								C420.328,260.619,421.091,260.936,421.321,260.448L421.321,260.448z"/>
						</g>
					</g>
				</g>
			</g>
			<g>
				<g id="_x32_gGvdE.tif_00000036970239527410392580000011431145008063268739_">
					<g>
						<g>
							<g>
								<g>
									<path style="fill:#455A64;" d="M410.669,273.671c0,0,0.812,1.32,1.074,2.558c0.136,0.643,0.585,1.171,1.185,1.445
										l5.858,2.68c0.657,0.3,1.432,0.262,2.065-0.116c0.742-0.443,1.88-0.847,2.765-0.644L410.669,273.671z"/>
								</g>
							</g>
						</g>
					</g>
				</g>
				<g>
					<g>
						<g>
							<g>
								<path style="fill:#263238;" d="M412.314,254.434c-0.058,0.118-3.179,9.903-4.371,13.645
									c-0.49,1.536-0.229,3.221,0.799,4.427c0.375,0.441,0.86,0.842,1.488,1.129c2.511,1.148,12.813,5.861,12.813,5.861
									s3.348,1.532,5.408-0.781c2.168-2.434,9.064-12.753,9.064-12.753L412.314,254.434z"/>
							</g>
						</g>
					</g>
				</g>
				<g>
					<g>
						<g>
							<g>
								<g>
									<path style="fill:#455A64;" d="M430.863,277.692l-23.306-10.561c-0.351-0.159-0.498-0.573-0.327-0.925l0.034-0.07
										c0.17-0.352,0.593-0.508,0.945-0.349l23.306,10.562c0.351,0.159,0.498,0.573,0.327,0.925l-0.034,0.069
										C431.637,277.695,431.214,277.852,430.863,277.692z"/>
								</g>
							</g>
						</g>
					</g>
				</g>
				<g>
					<g>
						<g>
							<g>
								<g>
									<path style="fill:#455A64;" d="M432.575,274.944l-23.91-10.835c-0.351-0.159-0.498-0.573-0.327-0.925l0.034-0.07
										c0.17-0.352,0.593-0.508,0.944-0.349l23.91,10.835c0.351,0.159,0.498,0.573,0.327,0.925l-0.034,0.07
										C433.35,274.947,432.927,275.103,432.575,274.944z"/>
								</g>
							</g>
						</g>
					</g>
				</g>
				<g>
					<g>
						<g>
							<g>
								<g>
									<path style="fill:#E0E0E0;" d="M434.471,272.278l-24.88-11.275c-0.351-0.159-0.498-0.573-0.327-0.925l0.034-0.07
										c0.17-0.352,0.593-0.508,0.945-0.349l24.88,11.275c0.351,0.159,0.498,0.573,0.328,0.925l-0.034,0.07
										C435.245,272.281,434.822,272.437,434.471,272.278z"/>
								</g>
							</g>
						</g>
					</g>
					<g>
						<g>
							<g>
								<g>
									<g>
										<path style="fill:#263238;" d="M434.471,272.278c-0.003-0.026,0.209,0.132,0.58-0.026
											c0.181-0.077,0.347-0.277,0.416-0.549c0.066-0.265-0.068-0.625-0.416-0.749c-1.382-0.616-3.357-1.497-5.791-2.582
											c-4.892-2.207-11.628-5.246-19.068-8.602c-0.194-0.09-0.436-0.06-0.608,0.073c-0.164,0.126-0.277,0.368-0.27,0.568
											c0.009,0.211,0.142,0.403,0.335,0.488c0.228,0.103,0.455,0.206,0.682,0.309c0.906,0.411,1.798,0.816,2.675,1.214
											c1.753,0.797,3.444,1.566,5.056,2.299c3.217,1.469,6.115,2.792,8.554,3.905c2.421,1.115,4.385,2.019,5.758,2.651
											c0.667,0.313,1.19,0.558,1.56,0.732c0.168,0.081,0.301,0.146,0.403,0.196
											C434.427,272.249,434.473,272.274,434.471,272.278c-0.002,0.004-0.051-0.014-0.145-0.052
											c-0.105-0.044-0.241-0.102-0.413-0.174c-0.375-0.164-0.905-0.396-1.58-0.691c-1.381-0.616-3.357-1.496-5.791-2.582
											c-2.446-1.1-5.352-2.407-8.577-3.859c-1.613-0.729-3.306-1.493-5.062-2.286c-0.878-0.397-1.771-0.801-2.677-1.211
											c-0.227-0.102-0.454-0.205-0.682-0.309c-0.268-0.117-0.459-0.391-0.47-0.687c-0.007-0.146,0.03-0.302,0.095-0.426
											c0.054-0.123,0.15-0.259,0.271-0.347c0.241-0.187,0.585-0.229,0.857-0.102c7.428,3.381,14.153,6.443,19.037,8.666
											c2.421,1.115,4.384,2.019,5.758,2.652c0.38,0.143,0.529,0.558,0.445,0.848c-0.08,0.291-0.269,0.504-0.466,0.579
											c-0.193,0.083-0.358,0.065-0.457,0.041C434.514,272.31,434.471,272.278,434.471,272.278z"/>
									</g>
								</g>
							</g>
						</g>
					</g>
				</g>
				<g>
					<g>
						<g>
							<g>
								<path style="fill:#455A64;" d="M412.066,247.548c-0.116,0.238-2.332,6.092-3.468,9.097
									c-0.417,1.104-0.305,2.319,0.304,3.305l0.893,1.445l24.773,11.333l1.697-0.246c1.187-0.172,2.24-0.875,2.855-1.904
									l4.992-8.369L412.066,247.548z"/>
							</g>
						</g>
					</g>
				</g>
				<g style="opacity:0.3;">
					<g>
						<g>
							<g>
								<g>
									<path d="M408.01,267.252c2.308,1.718,4.85,2.936,7.679,4.216c2.284,1.033,4.491,2.115,6.99,3.199
										c1.83,0.795,3.54,1.473,5.384,2.228c0.933,0.382,2.041,0.625,2.308,0.538L408.01,267.252z"/>
								</g>
							</g>
						</g>
					</g>
				</g>
				<g style="opacity:0.3;">
					<g>
						<g>
							<g>
								<g>
									<path d="M409.411,264.387c2.308,1.718,4.85,2.936,7.679,4.216c2.284,1.034,4.491,2.115,6.989,3.199
										c1.83,0.795,3.541,1.474,5.384,2.228c0.933,0.382,2.041,0.625,2.308,0.538L409.411,264.387z"/>
								</g>
							</g>
						</g>
					</g>
				</g>
				<g>
					<g>
						<g>
							<g>
								<g>
									<path style="fill:#263238;" d="M437.928,271.495c-0.029,0.06-6.679-2.923-14.851-6.661
										c-8.175-3.74-14.776-6.819-14.747-6.879c0.029-0.06,6.678,2.922,14.853,6.662
										C431.355,268.355,437.957,271.435,437.928,271.495z"/>
								</g>
							</g>
						</g>
					</g>
				</g>
				<g>
					<g>
						<g>
							<g>
								<g>
									<path style="fill:#263238;" d="M444.015,261.964c-0.03,0.067-7.265-3.142-16.159-7.168
										c-8.896-4.027-16.081-7.345-16.051-7.413c0.03-0.067,7.264,3.142,16.16,7.169
										C436.859,258.577,444.045,261.896,444.015,261.964z"/>
								</g>
							</g>
						</g>
					</g>
				</g>
			</g>
		</g>
		<g style="opacity:0.2;">
			<g>
				<g>
					<g>
						<path style="fill:#FFFFFF;" d="M447.783,197.018c0.647-1.432,2.284-2.465,4.205-3.016c2.748-0.789,5.666-0.376,8.133,0.953
							c7.259,3.91,11.298,8.593,13.608,16.873c0.782,2.805,1.062,7.431-0.418,10.166c-0.744,1.375-1.97,2.472-3.481,2.893
							c-3.931,1.094-6.898-2.669-7.985-6.253c-1.013-3.34-1.292-7.106-3.599-9.717c-1.9-2.151-4.82-3.086-7.227-4.67
							C448.614,202.664,446.578,199.687,447.783,197.018z"/>
					</g>
				</g>
			</g>
		</g>
		<g style="opacity:0.2;">
			<g>
				<g>
					<g>
						<path style="fill:#FFFFFF;" d="M464.424,230.937c1.782-1.846,5.105-2.018,6.698-0.795c1.29,1.053,2.076,2.712,1.982,4.388
							c-0.113,2.02-1.572,3.953-3.529,4.589c-1.956,0.636-4.268-0.111-5.367-1.785C463.11,235.66,462.994,232.418,464.424,230.937z"
							/>
					</g>
				</g>
			</g>
		</g>
	</g>
</g>
<g id="Speech_Bubble">
	<path style="fill:#FFFFFF;" d="M102.298,182.557l-10.859-1.89c-4.656,4.225-10.5,7.257-17.133,8.498
		c-19.077,3.567-37.433-9.006-41-28.083c-3.567-19.077,9.006-37.433,28.083-41c19.076-3.567,37.433,9.006,41,28.083
		c1.489,7.965,0.156,15.801-3.281,22.492l0.013-0.015L102.298,182.557z"/>
	<g>
		<path style="fill:#263238;" d="M101.567,179.556c-0.524-2.062-1.281-5.043-2.261-8.903c2.115-4.094,4.098-9.902,3.933-16.948
			c-0.05-3.529-0.729-7.321-2.097-11.125c-1.358-3.802-3.462-7.617-6.392-11.038c-2.92-3.421-6.662-6.44-11.044-8.638
			c-4.374-2.201-9.391-3.568-14.635-3.762c-10.465-0.487-21.82,4.261-28.979,13.338c-3.623,4.615-6.166,9.993-7.135,15.561
			c-1.032,5.551-0.703,11.19,0.749,16.333c1.433,5.16,4.095,9.76,7.366,13.51c3.284,3.756,7.219,6.652,11.329,8.631
			c8.267,3.975,16.999,4.251,23.827,2.499c6.872-1.7,11.94-5.116,15.263-8.168c3.492,0.563,6.199,0.999,8.077,1.301
			c0.877,0.137,1.558,0.243,2.059,0.321c0.457,0.07,0.683,0.101,0.672,0.091c0,0-0.259-0.061-0.734-0.154
			c-0.509-0.098-1.202-0.231-2.094-0.402c-1.857-0.348-4.536-0.849-8.002-1.499l-0.079-0.015l-0.062,0.055
			c-3.336,2.988-8.399,6.334-15.222,7.964c-6.744,1.674-15.319,1.344-23.414-2.591c-4.024-1.96-7.872-4.814-11.077-8.505
			c-3.193-3.685-5.786-8.193-7.179-13.246c-1.41-5.038-1.722-10.554-0.708-15.98c0.952-5.444,3.443-10.7,6.984-15.213
			c7-8.873,18.09-13.527,28.334-13.072c10.32,0.335,19.495,5.374,25.197,12.077c2.889,3.344,4.973,7.078,6.33,10.807
			c1.367,3.73,2.061,7.459,2.137,10.934c0.217,6.983-1.704,12.77-3.757,16.857v0.111c1.065,3.811,1.887,6.75,2.454,8.781
			c0.278,0.979,0.494,1.738,0.651,2.291c0.149,0.519,0.241,0.799,0.241,0.799c0.012,0.011-0.046-0.238-0.169-0.741
			C101.993,181.271,101.807,180.522,101.567,179.556z"/>
		<path style="fill:#263238;" d="M67.927,190.29c-5.337,0-10.756-1.205-15.635-3.551c-4.305-2.073-8.25-5.079-11.408-8.691
			c-3.493-4.003-6.058-8.709-7.419-13.608c-1.503-5.325-1.764-11.012-0.754-16.445c0.954-5.478,3.438-10.898,7.184-15.67
			c6.94-8.801,18.116-13.959,29.187-13.433c5.088,0.188,10.184,1.498,14.735,3.789c4.228,2.12,8.074,5.128,11.122,8.699
			c2.808,3.278,4.974,7.018,6.437,11.117c1.349,3.749,2.06,7.519,2.112,11.205c0.172,7.376-2.024,13.292-3.918,16.982l2.238,8.812
			c0,0,0.001,0.001,0.001,0.001l0.563,2.261c0.09,0.367,0.144,0.587,0.165,0.726c0.011,0.033,0.014,0.068,0.011,0.103
			c0.002,0.081-0.018,0.118-0.058,0.149c-0.029,0.046-0.065,0.069-0.154,0.072c-0.028,0.005-0.056,0.003-0.083-0.002
			c-0.129-0.008-0.331-0.039-0.664-0.089l-10.018-1.603c-3.018,2.752-8.096,6.367-15.282,8.145
			C73.587,189.949,70.769,190.29,67.927,190.29z M67.562,119.356c-10.409,0-20.745,4.999-27.273,13.278
			c-3.695,4.707-6.146,10.049-7.085,15.449c-0.996,5.361-0.739,10.97,0.744,16.222c1.341,4.829,3.871,9.467,7.314,13.414
			c3.114,3.562,7.004,6.525,11.248,8.57c7.371,3.543,15.993,4.448,23.657,2.481c0.795-0.197,1.564-0.416,2.307-0.655
			c-0.745,0.233-1.515,0.445-2.31,0.635c-7.663,1.902-16.258,0.951-23.582-2.61c-4.214-2.052-8.072-5.014-11.156-8.565
			c-3.409-3.934-5.91-8.548-7.231-13.344c-1.459-5.214-1.706-10.779-0.713-16.092c0.935-5.351,3.368-10.65,7.033-15.321
			c6.786-8.602,17.716-13.633,28.542-13.168c9.676,0.314,19.164,4.862,25.376,12.165c2.767,3.203,4.913,6.866,6.374,10.884
			c1.349,3.683,2.073,7.389,2.152,11.014c0.041,1.298,0.006,2.553-0.088,3.759c0.104-1.205,0.148-2.46,0.118-3.762
			c-0.052-3.633-0.752-7.348-2.083-11.046c-1.443-4.041-3.578-7.729-6.346-10.96c-3.006-3.521-6.798-6.486-10.967-8.577
			c-4.487-2.259-9.512-3.55-14.532-3.736C68.562,119.368,68.061,119.356,67.562,119.356z M67.637,120.119
			c-10.2,0-20.334,4.901-26.729,13.008c-3.615,4.606-6.013,9.829-6.935,15.101c-0.979,5.241-0.736,10.728,0.703,15.869
			c1.302,4.726,3.766,9.272,7.127,13.15c3.041,3.5,6.843,6.42,10.997,8.443c7.22,3.51,15.691,4.448,23.245,2.573
			c7.085-1.692,12.131-5.234,15.116-7.907l0.062-0.056c0.058-0.052,0.138-0.074,0.212-0.06l10.177,1.916
			c0.121,0.023,0.228,0.045,0.321,0.064c-0.033-0.111-0.072-0.243-0.116-0.396l-0.651-2.291l-2.454-8.781
			c-0.006-0.022-0.009-0.044-0.009-0.067v-0.111c0-0.039,0.009-0.077,0.026-0.112c1.826-3.637,3.955-9.493,3.73-16.737
			c-0.077-3.572-0.791-7.224-2.121-10.855c-1.441-3.961-3.556-7.571-6.284-10.729c-6.124-7.199-15.476-11.681-25.016-11.991
			C68.571,120.13,68.103,120.119,67.637,120.119z"/>
	</g>
	<path style="fill:#263238;" d="M57.543,154.624c0,2.703-2.191,4.894-4.893,4.894s-4.893-2.191-4.893-4.894
		c0-2.703,2.191-4.893,4.893-4.893S57.543,151.921,57.543,154.624z"/>
	<path style="fill:#263238;" d="M72.74,154.624c0,2.703-2.191,4.894-4.894,4.894c-2.702,0-4.893-2.191-4.893-4.894
		c0-2.703,2.191-4.893,4.893-4.893C70.549,149.73,72.74,151.921,72.74,154.624z"/>
	<path style="fill:#263238;" d="M87.937,154.624c0,2.703-2.191,4.894-4.893,4.894c-2.703,0-4.894-2.191-4.894-4.894
		c0-2.703,2.191-4.893,4.894-4.893C85.746,149.73,87.937,151.921,87.937,154.624z"/>
</g>
<g id="Brain_side_2">
	<g>
		<g>
			<g>
				<path style="fill:#FF725E;" d="M361.469,152.566c0,0,4.574-5.227-3.267-17.969s-7.514-17.642-17.969-21.563
					c-10.455-3.921-12.742-6.534-19.929-12.088s-22.543-24.83-46.719-18.949c-24.177,5.881-18.805,27.444-19.531,38.552
					c-0.725,11.108,1.706,29.731,0,39.532c-1.706,9.801-1.888,23.85,0,29.73c1.888,5.881,0,37.572,0,37.572v91.479
					c0,0-3.339,83.311,4.828,92.459c8.168,9.148,24.88,20.256,48.868,12.088c23.988-8.168,31.829-15.029,37.383-21.236
					c0,0,18.008-7.841,17.662-29.077c0,0,7.495-4.574,12.069-13.722c4.574-9.148,10.455-15.355,11.762-24.177
					c1.307-8.821-1.96-11.108-1.96-11.108s3.921-1.307,5.554-13.068c1.633-11.762,5.881-18.296,4.901-23.523
					c-0.98-5.227-4.574-9.148-4.574-9.148s3.23-1.634,4.719-7.841c1.489-6.207,2.469-21.236,2.142-29.404
					c-0.327-8.168-2.287-12.742-2.287-12.742s0.98-23.523-7.514-26.79l-3.594-1.634c0,0,3.594-2.94-0.327-10.128
					c-3.921-7.188-3.267-16.009-6.861-21.889C373.23,162.04,369.637,151.586,361.469,152.566z"/>
			</g>
			<g>
				<g>
					<g style="opacity:0.3;">
						<path d="M363.288,316.468c-0.05,0.014-0.078,0.022-0.099,0.028C363.215,316.488,363.249,316.479,363.288,316.468z"/>
					</g>
					<g style="opacity:0.3;">
						<path d="M363.189,316.496C363.155,316.505,363.145,316.508,363.189,316.496L363.189,316.496z"/>
					</g>
					<g style="opacity:0.3;">
						<path d="M363.288,316.468C363.405,316.435,363.523,316.403,363.288,316.468L363.288,316.468z"/>
					</g>
					<g style="opacity:0.3;">
						<path d="M364.922,324.406c-0.322-2.673-1.077-5.293-1.634-7.938c3.018,3.947,5.312,9.527,4.834,15.427
							c2.79,0.319,6.648-1.667,7.843-1.99c-3.303,3.889-11.015,8.529-12.148,13.23c-1.182,4.906,4.992,9.124,2.488,14.589
							c-1.776-1.579-0.96-2.794-1.34-4.621c-1.935-9.301-12.54-8.715-17.445-7.463c2.903-1.699,5.889-3.414,8.686-4.619
							C364.813,337.31,366.03,333.598,364.922,324.406z"/>
					</g>
					<g style="opacity:0.3;">
						<path d="M342.399,348.594c0.48-0.264,0.971-0.543,1.465-0.826l-6.727,6.408c-1.604,0.556-4.863,1.558-10.638-2.144
							C336.387,355.773,338.31,350.846,342.399,348.594z"/>
					</g>
					<g style="opacity:0.3;">
						<path d="M347.521,345.64c-1.242,0.727-2.467,1.448-3.657,2.128l1.217-1.159C345.303,346.355,346.211,345.974,347.521,345.64z"
							/>
					</g>
				</g>
				<g style="opacity:0.3;">
					<path d="M327.473,391.933c-5.225,5.175-9.64,11.64-15.76,15.003c-5.778,3.174-13.35,3.086-19.937,5.304
						c8.855,2.44,16.743,0.724,24.134-4.702c6.809-4.999,13.901-9.631,21.025-14.179c7.275-4.645,12.785-10.588,15.139-19.036
						c0.384-1.38,0.054-2.958-1.643-4.896c-0.742,1.963-1.649,3.881-2.197,5.896c-2.081,7.649-7.029,12.885-14.033,16.049
						C332.068,392.334,329.267,391.817,327.473,391.933z"/>
				</g>
				<g style="opacity:0.3;">
					<path d="M282.017,164.827c8.786,12.567-2.858,28.616,2.767,34.093c0.575-1.592-0.789-3.38,0.175-4.6
						C292.74,184.47,290.027,169.724,282.017,164.827z"/>
				</g>
				<g style="opacity:0.3;">
					<path d="M277.331,389.437c3.581,2.225,6.659,4.137,9.577,5.95c3.939-1.845,8.167-3.826,12.702-5.95
						C292.042,389.437,284.735,389.437,277.331,389.437z"/>
				</g>
			</g>
			<g>
				<g>
					<path style="fill:#263238;" d="M252.919,283.66c0.003-0.009,0.131,0.023,0.377,0.092c0.27,0.08,0.63,0.186,1.087,0.321
						c0.486,0.148,1.073,0.327,1.761,0.538c0.699,0.202,1.522,0.374,2.438,0.604c3.668,0.857,9.112,1.769,15.864,1.53
						c3.366-0.196,7.044-0.642,10.888-1.617c3.826-1.017,7.802-2.582,11.593-4.906c3.773-2.319,7.388-5.439,10.187-9.345
						c2.618-4.063,4.153-8.937,6.767-13.442c0.606-1.023,1.256-2.024,2.039-2.919c0.775-0.899,1.635-1.682,2.454-2.505
						c1.739-1.532,3.519-2.981,5.433-4.169c3.783-2.441,7.793-4.227,11.754-5.496c7.94-2.549,15.54-3.359,22.008-3.672l-0.184,0.148
						c1.028-3.827,1.986-7.293,2.967-10.297c0.967-3.009,1.961-5.552,2.863-7.59c1.82-4.077,3.246-6.116,3.246-6.116
						c0.009,0.005-0.06,0.144-0.203,0.409c-0.157,0.288-0.368,0.677-0.638,1.173c-0.545,1.038-1.33,2.579-2.201,4.624
						c-0.869,2.045-1.828,4.589-2.764,7.598c-0.95,3.005-1.88,6.47-2.884,10.303l-0.037,0.141l-0.147,0.008
						c-6.443,0.352-14.004,1.194-21.872,3.744c-3.925,1.269-7.89,3.047-11.624,5.463c-1.889,1.176-3.643,2.608-5.358,4.12
						c-0.803,0.808-1.663,1.593-2.409,2.461c-0.754,0.861-1.389,1.839-1.984,2.843c-2.577,4.432-4.113,9.31-6.79,13.458
						c-2.879,4.007-6.532,7.131-10.367,9.477c-3.847,2.343-7.873,3.907-11.739,4.915c-3.884,0.965-7.593,1.393-10.984,1.566
						c-6.8,0.193-12.262-0.783-15.928-1.704c-0.916-0.246-1.737-0.435-2.433-0.653c-0.684-0.229-1.267-0.425-1.75-0.587
						c-0.451-0.156-0.805-0.279-1.072-0.371C253.037,283.717,252.915,283.669,252.919,283.66z"/>
				</g>
			</g>
			<g>
				<g>
					<path style="fill:#263238;" d="M278.155,343.207c-0.009,0.001-0.022-0.09-0.038-0.269c-0.015-0.21-0.035-0.472-0.058-0.796
						c0.021-0.697,0.027-1.748,0.383-3.042c0.623-2.607,2.632-6.07,6.056-9.388c1.7-1.674,3.732-3.301,5.824-5.134
						c2.081-1.831,4.278-3.87,5.974-6.469c0.841-1.298,1.541-2.727,2.012-4.28c0.489-1.547,0.807-3.186,1.135-4.858
						c0.328-1.673,0.663-3.391,1.224-5.086c0.55-1.698,1.388-3.341,2.484-4.812c2.186-2.967,5.132-5.149,8.176-6.728
						c3.055-1.596,6.247-2.576,9.296-3.326c6.119-1.453,11.727-2.197,16.254-3.576c4.543-1.315,7.969-3.112,10.103-4.661
						c1.082-0.759,1.845-1.448,2.362-1.914c0.234-0.222,0.423-0.402,0.575-0.546c0.132-0.121,0.203-0.18,0.21-0.174
						c0,0-0.885,1.203-3.024,2.801c-2.114,1.614-5.554,3.484-10.118,4.854c-4.548,1.434-10.173,2.22-16.245,3.691
						c-3.026,0.759-6.174,1.737-9.172,3.312c-2.99,1.559-5.867,3.702-7.988,6.581c-1.066,1.43-1.873,3.012-2.411,4.664
						c-0.549,1.651-0.884,3.349-1.215,5.02c-0.331,1.672-0.656,3.329-1.162,4.911c-0.486,1.588-1.218,3.069-2.086,4.395
						c-1.753,2.659-3.992,4.708-6.094,6.534c-2.114,1.825-4.155,3.433-5.852,5.07c-3.423,3.253-5.444,6.625-6.118,9.173
						C277.936,341.709,278.246,343.214,278.155,343.207z"/>
				</g>
			</g>
			<g>
				<g>
					<path style="fill:#263238;" d="M363.974,278.563c-0.032,0.16-3.198-0.486-7.156-0.555c-3.958-0.093-7.147,0.422-7.173,0.261
						c-0.012-0.067,0.772-0.282,2.07-0.479c1.296-0.198,3.109-0.354,5.115-0.314c2.005,0.043,3.81,0.273,5.096,0.524
						C363.214,278.25,363.989,278.497,363.974,278.563z"/>
				</g>
			</g>
			<g>
				<g>
					<path style="fill:#263238;" d="M349.72,269.523c0.098-0.09,1.305,1.832,1.268,4.53c-0.007,2.7-1.246,4.601-1.342,4.509
						c-0.152-0.064,0.81-1.968,0.811-4.514C350.497,271.505,349.567,269.585,349.72,269.523z"/>
				</g>
			</g>
			<g>
				<g>
					<path style="fill:#263238;" d="M326.599,329.905c-0.113-0.08,1.799-1.918,3.57-5.688c0.885-1.873,1.672-4.237,2.063-6.947
						c0.396-2.704,0.344-5.757-0.374-8.827c-0.755-3.063-2.095-5.807-3.675-8.037c-1.579-2.237-3.354-3.987-4.992-5.253
						c-3.289-2.555-5.827-3.324-5.763-3.446c0.007-0.017,0.162,0.028,0.453,0.131c0.287,0.112,0.728,0.24,1.257,0.495
						c1.079,0.461,2.589,1.269,4.282,2.523c1.694,1.248,3.53,3.002,5.163,5.268c1.634,2.258,3.02,5.059,3.793,8.197
						c0.735,3.145,0.772,6.269,0.341,9.023c-0.426,2.76-1.266,5.156-2.209,7.037c-0.939,1.886-1.918,3.291-2.67,4.192
						c-0.356,0.467-0.69,0.781-0.895,1.011C326.731,329.806,326.613,329.917,326.599,329.905z"/>
				</g>
			</g>
			<g>
				<g>
					<path style="fill:#263238;" d="M325.74,351.352c0.041-0.049,0.77,0.755,2.415,1.74c0.824,0.479,1.879,1.012,3.19,1.346
						c1.299,0.335,2.88,0.489,4.502,0.021c1.642-0.426,3.132-1.632,4.438-3.146c1.337-1.491,2.566-3.332,4.441-4.75
						c1.896-1.433,4.375-1.95,6.805-2.323c2.444-0.376,4.993-0.772,7.212-2.139c1.123-0.635,2.136-1.432,3.021-2.327
						c0.901-0.879,1.675-1.862,2.32-2.899c1.325-2.057,2.113-4.329,2.498-6.537c0.347-2.22,0.222-4.385-0.168-6.347
						c-0.413-1.962-1.088-3.721-1.861-5.243c-1.552-3.057-3.451-5.142-4.822-6.471c-0.693-0.663-1.255-1.156-1.65-1.472
						c-0.391-0.322-0.591-0.499-0.58-0.514c0.011-0.015,0.233,0.133,0.646,0.429c0.418,0.29,1.005,0.76,1.725,1.405
						c1.426,1.294,3.393,3.364,5.014,6.45c0.807,1.536,1.518,3.322,1.958,5.325c0.418,2.002,0.564,4.225,0.22,6.515
						c-0.382,2.275-1.183,4.615-2.542,6.738c-0.661,1.069-1.458,2.085-2.387,2.996c-0.913,0.926-1.962,1.752-3.127,2.412
						c-1.152,0.68-2.398,1.175-3.657,1.498c-1.26,0.316-2.518,0.503-3.739,0.695c-2.432,0.366-4.803,0.862-6.597,2.203
						c-1.791,1.333-3.033,3.144-4.402,4.649c-1.337,1.525-2.926,2.789-4.665,3.215c-1.716,0.468-3.354,0.275-4.681-0.096
						c-1.34-0.372-2.4-0.944-3.221-1.457C326.411,352.212,325.74,351.352,325.74,351.352z"/>
				</g>
			</g>
			<g>
				<g>
					<path style="fill:#263238;" d="M316.974,372.137c-0.013-0.099,1.275-0.173,3.196-0.851c1.907-0.66,4.448-2.059,6.429-4.442
						c1.979-2.386,2.888-5.141,3.186-7.137c0.313-2.013,0.15-3.292,0.249-3.298c0.032-0.004,0.105,0.31,0.162,0.888
						c0.058,0.578,0.074,1.423-0.038,2.46c-0.208,2.059-1.09,4.943-3.15,7.426c-2.061,2.479-4.734,3.876-6.72,4.459
						c-0.999,0.301-1.833,0.441-2.412,0.489C317.298,372.183,316.977,372.169,316.974,372.137z"/>
				</g>
			</g>
			<g>
				<g>
					<path style="fill:#263238;" d="M283.04,407.441c0.008-0.017,0.289,0.083,0.817,0.287c0.524,0.214,1.311,0.492,2.33,0.826
						c2.041,0.643,5.075,1.414,8.904,1.611c3.813,0.199,8.436-0.236,13.198-1.946c4.738-1.72,9.586-4.737,13.515-9.053
						c1.527-1.664,2.857-3.449,3.952-5.26l0.078-0.13l0.151,0.003c5.047,0.079,9.725-1.531,13.283-3.878
						c3.596-2.344,6.039-5.426,7.569-8.21c1.541-2.802,2.217-5.313,2.559-7.039c0.172-0.866,0.268-1.545,0.318-2.005
						c0.054-0.46,0.091-0.701,0.107-0.7c0.017,0.001,0.012,0.244-0.011,0.709c-0.019,0.465-0.085,1.152-0.229,2.03
						c-0.287,1.75-0.917,4.306-2.439,7.171c-1.51,2.846-3.965,6.013-7.618,8.431c-3.612,2.42-8.381,4.088-13.548,4.017l0.229-0.127
						c-1.109,1.843-2.459,3.659-4.01,5.348c-3.991,4.385-8.923,7.435-13.742,9.155c-4.844,1.711-9.533,2.11-13.384,1.861
						c-3.867-0.248-6.915-1.083-8.948-1.79c-1.015-0.367-1.794-0.677-2.306-0.923C283.299,407.59,283.032,407.458,283.04,407.441z"
						/>
				</g>
			</g>
			<g>
				<g>
					<path style="fill:#263238;" d="M365.659,361.454c-0.089-0.031,0.368-1.188,0.664-3.143c0.303-1.941,0.346-4.726-0.517-7.607
						c-0.863-2.882-2.43-5.185-3.75-6.64c-1.322-1.47-2.34-2.185-2.282-2.26c0.019-0.027,0.293,0.121,0.753,0.446
						c0.46,0.323,1.094,0.84,1.804,1.557c1.42,1.42,3.094,3.765,3.986,6.745c0.893,2.979,0.783,5.857,0.378,7.824
						c-0.198,0.99-0.444,1.77-0.651,2.293C365.837,361.191,365.69,361.466,365.659,361.454z"/>
				</g>
			</g>
			<g>
				<g>
					<path style="fill:#263238;" d="M366.306,332.746c0.014-0.094,1.03,0.118,2.656-0.018c1.611-0.124,3.865-0.706,5.851-2.188
						c1.984-1.487,3.179-3.485,3.753-4.995c0.59-1.522,0.673-2.556,0.768-2.543c0.033,0.003,0.048,0.262,0.006,0.729
						c-0.041,0.467-0.161,1.139-0.419,1.941c-0.5,1.593-1.698,3.729-3.788,5.294c-2.092,1.562-4.478,2.108-6.148,2.138
						c-0.842,0.021-1.521-0.053-1.98-0.146C366.544,332.866,366.3,332.778,366.306,332.746z"/>
				</g>
			</g>
			<g>
				<g>
					<path style="fill:#263238;" d="M370.053,275.075c0.029-0.023,0.309,0.296,0.792,0.894c0.493,0.59,1.137,1.501,1.865,2.668
						c0.736,1.164,1.501,2.619,2.237,4.286c0.71,1.678,1.374,3.574,1.878,5.618c0.485,2.049,0.759,4.04,0.893,5.858
						c0.106,1.82,0.089,3.464-0.035,4.835c-0.115,1.371-0.273,2.475-0.442,3.225c-0.158,0.753-0.261,1.163-0.297,1.156
						c-0.099-0.018,0.23-1.684,0.364-4.405c0.075-1.36,0.053-2.983-0.078-4.775c-0.159-1.79-0.443-3.749-0.921-5.769
						c-0.497-2.014-1.137-3.887-1.813-5.552c-0.701-1.655-1.422-3.109-2.109-4.285C371.027,276.469,369.973,275.136,370.053,275.075
						z"/>
				</g>
			</g>
			<g style="opacity:0.3;">
				<g>
					<path d="M384.691,251.694c0.813-4.784,0.612-10.22-2.266-14.128c4.251,3.338,5.431,8.955,4.591,14.294
						c-0.84,5.339-3.226,11.098-8.296,12.97C381.569,260.901,383.878,256.478,384.691,251.694z"/>
				</g>
			</g>
			<g>
				<g>
					<path style="fill:#263238;" d="M378.943,264.517c-0.067-0.09,1.469-0.963,3.33-3.034c1.853-2.032,3.932-5.45,4.481-9.656
						c0.539-4.21-0.603-8.043-1.879-10.48c-1.273-2.476-2.537-3.71-2.449-3.78c0.022-0.021,0.35,0.268,0.873,0.859
						c0.525,0.589,1.217,1.508,1.907,2.745c1.388,2.441,2.631,6.376,2.074,10.725c-0.567,4.346-2.769,7.836-4.732,9.843
						c-0.983,1.021-1.885,1.735-2.543,2.171C379.349,264.347,378.958,264.543,378.943,264.517z"/>
				</g>
			</g>
			<g>
				<g>
					<path style="fill:#263238;" d="M356.321,209.33c-0.076-0.127,2.197-0.74,4.805-3.241c1.296-1.233,2.607-2.962,3.563-5.125
						c0.959-2.152,1.5-4.768,1.239-7.476c-0.308-2.703-1.381-5.15-2.766-7.057c-1.385-1.917-3.027-3.336-4.551-4.272
						c-3.072-1.904-5.422-2.031-5.374-2.171c0.003-0.018,0.143-0.01,0.409,0.024c0.263,0.046,0.665,0.064,1.157,0.201
						c0.998,0.213,2.417,0.7,4.003,1.625c1.587,0.918,3.302,2.345,4.752,4.305c1.45,1.949,2.58,4.477,2.899,7.29
						c0.272,2.816-0.308,5.524-1.321,7.731c-1.01,2.219-2.391,3.971-3.752,5.199c-1.359,1.235-2.646,2.007-3.578,2.422
						c-0.453,0.236-0.842,0.337-1.09,0.437C356.462,209.31,356.327,209.348,356.321,209.33z"/>
				</g>
			</g>
			<g>
				<g>
					<path style="fill:#263238;" d="M326.109,228.204c-0.018,0.003-0.054-0.154-0.106-0.455c-0.039-0.302-0.149-0.746-0.172-1.328
						c-0.11-1.158-0.088-2.864,0.31-4.917c0.391-2.051,1.243-4.436,2.726-6.781c1.472-2.341,3.636-4.606,6.403-6.242
						c2.792-1.594,5.832-2.352,8.596-2.472c2.772-0.127,5.267,0.315,7.242,0.991c1.98,0.671,3.473,1.496,4.424,2.166
						c0.494,0.308,0.825,0.624,1.069,0.807c0.236,0.194,0.354,0.303,0.343,0.317c-0.073,0.132-2.009-1.699-5.95-2.932
						c-1.952-0.618-4.398-1.01-7.102-0.859c-2.696,0.143-5.646,0.897-8.354,2.442c-2.683,1.587-4.798,3.776-6.257,6.047
						c-1.47,2.274-2.341,4.592-2.771,6.595C325.628,225.617,326.26,228.207,326.109,228.204z"/>
				</g>
			</g>
			<g>
				<g>
					<path style="fill:#263238;" d="M302.351,139.019c0.005-0.004,0.052,0.043,0.138,0.14c0.1,0.118,0.223,0.262,0.375,0.44
						c0.33,0.389,0.798,0.982,1.379,1.774c1.147,1.587,2.783,3.975,4.203,7.319c0.708,1.668,1.33,3.584,1.724,5.723
						c0.407,2.132,0.522,4.509,0.176,6.984c-0.186,1.235-0.488,2.489-0.905,3.744c-0.44,1.247-1.008,2.486-1.722,3.681
						c-1.431,2.379-3.542,4.553-6.253,5.948l-0.002-0.445c3.08,1.518,6.106,3.586,8.673,6.311c2.557,2.712,4.648,6.131,5.527,10.018
						c0.74,3.427,0.427,6.982-0.753,10.095c-1.169,3.117-3.299,5.785-5.977,7.378l0.057-0.387c2.154,2.397,3.369,5.373,3.823,8.274
						c0.462,2.914,0.248,5.757-0.328,8.335c-0.594,2.58-1.57,4.897-2.692,6.906c-1.114,2.019-2.333,3.768-3.515,5.287
						c-2.379,3.031-4.535,5.206-5.991,6.705c-0.722,0.719-1.288,1.283-1.698,1.692c-0.182,0.173-0.328,0.314-0.447,0.427
						c-0.102,0.094-0.157,0.14-0.162,0.135c-0.005-0.005,0.039-0.061,0.131-0.165c0.111-0.121,0.247-0.271,0.417-0.457
						c0.396-0.422,0.942-1.005,1.638-1.748c1.417-1.534,3.534-3.74,5.863-6.78c1.158-1.523,2.349-3.27,3.434-5.275
						c1.094-1.999,2.035-4.283,2.603-6.82c0.55-2.536,0.744-5.325,0.28-8.165c-0.455-2.828-1.647-5.703-3.729-8.009l-0.207-0.229
						l0.264-0.158c2.566-1.537,4.614-4.106,5.744-7.13c1.14-3.018,1.441-6.476,0.724-9.796c-0.851-3.767-2.886-7.112-5.388-9.772
						c-2.512-2.675-5.484-4.719-8.513-6.223l-0.443-0.22l0.441-0.225c2.618-1.337,4.675-3.432,6.081-5.745
						c0.701-1.161,1.262-2.368,1.699-3.585c0.414-1.225,0.717-2.451,0.908-3.66c0.716-4.875-0.443-9.23-1.768-12.529
						c-1.366-3.327-2.952-5.731-4.053-7.341c-0.558-0.804-1.004-1.411-1.312-1.817c-0.139-0.189-0.251-0.341-0.342-0.466
						C302.381,139.08,302.345,139.023,302.351,139.019z"/>
				</g>
			</g>
			<g>
				<g>
					<path style="fill:#263238;" d="M302.487,132.107c-0.009-0.016,0.217-0.152,0.658-0.396c0.441-0.241,1.112-0.565,2.008-0.902
						c1.785-0.669,4.534-1.353,7.975-1.262c3.433,0.044,7.504,0.942,11.637,2.801c4.144,1.851,8.349,4.543,12.491,7.715
						c2.71,2.144,5.116,4.662,6.44,7.622c1.331,2.917,1.618,6.178,0.614,8.824l-0.318-0.285c2.546-1.245,4.991-2.171,7.225-2.745
						c2.232-0.585,4.235-0.839,5.882-0.951c1.649-0.111,2.947-0.091,3.83-0.064c0.406,0.023,0.738,0.041,1.007,0.056
						c0.228,0.017,0.345,0.032,0.344,0.045c0,0.012-0.118,0.021-0.346,0.028c-0.269,0.004-0.6,0.008-1.006,0.014
						c-0.881,0.018-2.173,0.04-3.807,0.19c-1.632,0.151-3.608,0.438-5.806,1.047c-2.2,0.598-4.605,1.539-7.118,2.793l-0.52,0.259
						l0.202-0.544c0.932-2.518,0.648-5.638-0.649-8.453c-1.284-2.845-3.628-5.303-6.303-7.418
						c-4.101-3.141-8.285-5.837-12.361-7.685c-4.074-1.861-8.066-2.78-11.447-2.872c-3.388-0.137-6.107,0.48-7.895,1.081
						c-0.897,0.303-1.576,0.594-2.03,0.803C302.739,132.019,302.496,132.123,302.487,132.107z"/>
				</g>
			</g>
			<g>
				<g>
					<path style="fill:#263238;" d="M330.923,122.263c-0.007-0.033,0.239-0.12,0.699-0.214c0.459-0.095,1.137-0.177,1.98-0.174
						c1.674-0.004,4.063,0.453,6.255,1.863c2.193,1.412,3.599,3.397,4.288,4.922c0.353,0.766,0.559,1.417,0.662,1.874
						c0.105,0.457,0.127,0.717,0.095,0.724c-0.09,0.025-0.324-0.985-1.093-2.431c-0.755-1.438-2.148-3.295-4.24-4.643
						c-2.092-1.345-4.36-1.843-5.981-1.934C331.954,122.149,330.938,122.355,330.923,122.263z"/>
				</g>
			</g>
			<g>
				<g>
					<path style="fill:#263238;" d="M281.713,109.094c-0.003-0.147,1.957-0.312,4.378-0.368c2.422-0.056,4.387,0.017,4.391,0.164
						c0.003,0.147-1.957,0.311-4.378,0.368C283.682,109.314,281.716,109.241,281.713,109.094z"/>
				</g>
			</g>
			<g>
				<g>
					<path style="fill:#263238;" d="M283.443,149.072c-0.051-0.027,0.315-0.668,0.777-1.907c0.464-1.233,0.984-3.093,1.117-5.445
						c0.105-2.339-0.205-5.194-1.452-8.039c-0.609-1.423-1.503-2.793-2.463-4.207c-0.947-1.417-1.971-2.902-2.64-4.64
						c-0.331-0.867-0.545-1.779-0.585-2.695c-0.047-0.917,0.111-1.821,0.36-2.656c0.506-1.678,1.313-3.133,1.837-4.589
						c1.077-2.911,0.926-5.825,0.362-8.082c-0.571-2.284-1.583-3.946-2.349-5.009c-0.793-1.055-1.339-1.553-1.3-1.593
						c0.013-0.013,0.154,0.104,0.413,0.343c0.268,0.23,0.618,0.613,1.051,1.124c0.829,1.039,1.915,2.708,2.549,5.04
						c0.625,2.302,0.827,5.31-0.264,8.344c-0.531,1.504-1.325,2.964-1.798,4.569c-0.51,1.595-0.437,3.367,0.221,5.015
						c1.315,3.307,3.86,5.853,5.056,8.84c1.259,2.94,1.534,5.871,1.378,8.256c-0.184,2.398-0.771,4.274-1.3,5.499
						c-0.269,0.613-0.497,1.078-0.681,1.378C283.557,148.925,283.459,149.081,283.443,149.072z"/>
				</g>
			</g>
			<g>
				<g>
					<path style="fill:#263238;" d="M284.784,198.921c-0.015,0.007-0.082-0.098-0.178-0.315c-0.094-0.217-0.203-0.553-0.27-1
						c-0.142-0.891-0.03-2.247,0.607-3.734c0.598-1.501,1.727-3.05,2.536-4.947c0.832-1.89,1.444-4.11,1.648-6.49
						c0.409-4.786-0.851-9.098-2.287-11.869c-1.423-2.811-2.861-4.2-2.759-4.28c0.027-0.025,0.369,0.326,0.969,0.986
						c0.575,0.679,1.356,1.715,2.124,3.119c1.548,2.775,2.904,7.182,2.484,12.09c-0.21,2.44-0.852,4.716-1.731,6.644
						c-0.866,1.95-2.02,3.463-2.639,4.897c-0.657,1.416-0.819,2.698-0.746,3.561C284.611,198.452,284.833,198.903,284.784,198.921z"
						/>
				</g>
			</g>
			<g>
				<g>
					<path style="fill:#263238;" d="M258.003,214.597c0.077-0.061,0.827,1.025,2.422,2.376c1.574,1.348,4.106,2.891,7.225,3.508
						c3.12,0.615,6.049,0.15,8.017-0.498c1.989-0.643,3.095-1.362,3.143-1.276c0.017,0.028-0.24,0.234-0.746,0.546
						c-0.505,0.313-1.274,0.712-2.275,1.086c-1.982,0.756-5.007,1.302-8.243,0.664c-3.234-0.64-5.824-2.295-7.37-3.748
						c-0.783-0.726-1.343-1.387-1.691-1.869C258.136,214.904,257.977,214.616,258.003,214.597z"/>
				</g>
			</g>
			<g>
				<g>
					<path style="fill:#263238;" d="M291.64,249.638c0.013,0.015-0.28,0.24-0.911,0.279c-0.627,0.053-1.536-0.178-2.492-0.714
						c-1.874-1.107-4.309-2.838-6.776-5.038c-2.467-2.196-4.448-4.449-5.772-6.153c-0.661-0.854-1.167-1.567-1.498-2.072
						c-0.329-0.506-0.497-0.796-0.467-0.817c0.067-0.048,0.869,1.015,2.257,2.651c1.39,1.633,3.393,3.82,5.835,5.994
						c2.435,2.173,4.83,3.947,6.609,5.109c0.899,0.557,1.72,0.82,2.301,0.833C291.31,249.737,291.624,249.587,291.64,249.638z"/>
				</g>
			</g>
			<g>
				<g>
					<path style="fill:#263238;" d="M275.815,256.602c-0.049-0.074,0.686-0.544,1.646-1.534c0.958-0.979,2.104-2.55,2.731-4.545
						c0.627-1.997,0.586-3.941,0.36-5.292c-0.22-1.361-0.555-2.167-0.472-2.2c0.051-0.026,0.516,0.736,0.842,2.128
						c0.33,1.377,0.439,3.421-0.222,5.523c-0.66,2.101-1.919,3.715-2.977,4.656C276.659,256.293,275.842,256.653,275.815,256.602z"
						/>
				</g>
			</g>
			<g style="opacity:0.3;">
				<g>
					<path d="M355.766,209.088c-6.164-3.353-14.101-3.169-20.103,0.464c-6.002,3.634-9.845,10.582-9.732,17.597
						c-1.686-5.699-0.421-12.187,3.283-16.835c3.704-4.648,9.746-7.329,15.678-6.957c3.829,0.24,7.718,1.656,11.408,0.607
						c2.1-0.597,3.91-1.951,5.459-3.49c2.212-2.198,4.071-5.106,3.818-8.214c0,0,2.249,7.008-2.042,11.29
						C359.243,207.833,355.766,209.088,355.766,209.088z"/>
				</g>
			</g>
			<g style="opacity:0.3;">
				<g>
					<path d="M336.632,136.786c2.661,1.86,5.161,4.031,6.944,6.744c1.783,2.713,2.803,6.022,2.338,9.234
						c6.078-1.044,10.256-1.025,16.367-0.198c-7.071,0.566-12.124,0.239-17.885,3.917c0.458-5.211-1.69-10.445-5.137-14.379
						c-3.448-3.934-8.097-6.666-12.98-8.542c-4.883-1.876-10.03-2.951-15.151-4.018
						C320.107,128.607,329.231,131.613,336.632,136.786z"/>
				</g>
			</g>
			<g style="opacity:0.3;">
				<g>
					<path d="M281.553,109.036c2.099-0.137,4.199-0.273,6.298-0.41c0.924-0.06,1.894-0.135,2.669-0.643
						c-1.671-0.578-3.461-0.809-5.223-0.672c-0.343,0.027-0.704,0.064-1.019-0.076c-0.464-0.206-0.686-0.724-0.895-1.187
						c-0.971-2.153-2.539-4.032-4.483-5.372c-0.031,1.485,0.788,2.834,1.509,4.134c0.721,1.299,1.386,2.785,1.023,4.225"/>
				</g>
			</g>
			<g style="opacity:0.3;">
				<g>
					<path d="M281.108,243.73c3.833,3.748,9.002,6.1,14.346,6.528c-3.128,1.46-6.878,1.523-10.053,0.168
						c-1.476,2.061-2.974,4.145-4.919,5.77c-1.945,1.625-5.343,1.779-7.872,1.619c2.22-1.33,5.461-1.769,6.73-4.024
						c1.016-1.806,1.238-3.936,1.439-5.998c0.163-1.673,0.246-3.588-0.94-4.779"/>
				</g>
			</g>
			<g style="opacity:0.3;">
				<g>
					<path d="M362.857,277.971c-1.116-1.271-2.73-2.023-4.384-2.379c-1.653-0.356-3.361-0.347-5.052-0.307
						c-0.047-1.754-0.946-3.466-2.363-4.501c-0.112-0.082-0.243-0.163-0.38-0.138c-0.307,0.056-0.278,0.503-0.186,0.801
						c0.587,1.902,0.415,4.026-0.468,5.81c-0.127,0.257-0.249,0.616-0.02,0.789c0.095,0.072,0.222,0.08,0.341,0.084
						c2.09,0.078,4.174-0.217,6.26-0.363c2.087-0.146,4.227-0.136,6.211,0.527"/>
				</g>
			</g>
			<g style="opacity:0.3;">
				<g>
					<path d="M278.112,338.275c3.304-3.627,1.337-3.711,5.049-6.915c9.014-7.777,10.524-10.273,14.815-16.118
						c1.272-1.733,1.031-4.059,1.551-6.048c0.637-2.439,0.524-5.812,1.81-7.435c4.062-5.395,8.32-9.677,13.264-10.029
						c2.805-1.799,8.262-3.2,11.14-3.583c4.955-0.661,7.846-1.294,12.56-2.959c4.714-1.665,8.344-3.237,11.525-7.094l0.651,0.267
						c-3.144,6.135-9.486,10.132-16.12,12.008c-5.165,1.461-10.55,1.796-15.935,1.88c0.646,0.217,1.3,0.478,1.97,0.837
						c15.43,11.406,14.792,23.604,8.3,32.904c-5.629,8.065-9.078,18.145-19.206,22.374c-6.887,2.876-13.803,5.684-20.705,8.522
						c1.348-2.408,3.2-4.792,5.635-5.974c4.48-2.174,9.419-3.39,13.955-5.466c6.376-2.918,11.585-6.923,10.289-15.512
						c12.947-6.492,15.344-22.81,4.817-32.283c-1.731-1.557-6.519-2.335-7.938-1.144c-4.759,3.994-9.987,8.405-12.541,13.831
						c-4.226,8.98-8.366,17.504-16.538,23.673c-2.765,2.087-4.512,5.49-6.856,8.178c-0.923,1.059-2.204,1.807-3.321,2.696
						C275.652,344.282,278.742,338.879,278.112,338.275z"/>
				</g>
			</g>
			<g style="opacity:0.3;">
				<g>
					<path d="M296.404,281.327c7.773-4.275,12.434-12.947,16.141-20.256c-1.9,10.302-8.217,20.279-17.575,24.989
						c-9.357,4.709-20.919,4.769-30.325,0.157C275.485,286.459,286.903,286.552,296.404,281.327z"/>
				</g>
			</g>
		</g>
		<g style="opacity:0.2;">
			<g>
				<path style="fill:#FFFFFF;" d="M339.922,181.15c1.309-0.738,2.826-1.08,4.344-1.154c0.842-0.041,1.684,0.085,2.491,0.328
					c2.917,0.878,5.828,1.816,8.512,3.249c3.016,1.609,5.764,3.905,7.34,6.938c0.815,1.568,1.261,3.582,0.25,5.031
					c-0.784,1.125-2.278,1.59-3.643,1.46c-1.365-0.13-2.629-0.763-3.811-1.46c-4.106-2.423-7.726-5.79-12.246-7.305
					c-2.051-0.687-4.609-1.303-5.037-3.533C337.85,183.284,338.662,181.861,339.922,181.15z"/>
			</g>
		</g>
		<g style="opacity:0.2;">
			<g>
				<path style="fill:#FFFFFF;" d="M314.738,135.069c1.309-0.738,2.826-1.08,4.344-1.154c0.842-0.041,1.684,0.085,2.491,0.328
					c2.917,0.878,5.828,1.816,8.512,3.249c3.016,1.609,5.764,3.905,7.34,6.938c0.815,1.568,1.261,3.582,0.25,5.031
					c-0.784,1.125-2.278,1.59-3.643,1.46c-1.365-0.13-2.629-0.763-3.811-1.46c-4.106-2.423-7.726-5.79-12.246-7.305
					c-2.051-0.687-4.61-1.303-5.037-3.533C312.666,137.204,313.478,135.78,314.738,135.069z"/>
			</g>
		</g>
		<g style="opacity:0.2;">
			<g>
				<path style="fill:#FFFFFF;" d="M261.562,94.197c1.085-2.171,1.952-4.836,4.037-6.079c3.04-1.813,6.301-2.991,11.286-3.7l0,0
					c8.737-1.302,17.319,3.098,24.415,8.359c7.096,5.261,13.563,11.595,21.64,15.173c1.104,0.489,2.249,0.934,3.193,1.687
					c0.943,0.754,1.671,1.896,1.583,3.1c-0.154,2.106-2.546,3.258-4.634,3.575c-6.979,1.059-13.871-2.316-19.635-6.391
					c-5.764-4.074-11.049-8.997-17.541-11.767c-3.205-1.368-7.078-2.117-10.049-0.296c-2.042,1.252-3.31,3.525-5.384,4.724
					c-2.358,1.362-5.59,0.987-7.573-0.88C260.915,99.837,260.345,96.633,261.562,94.197z"/>
			</g>
		</g>
		<g>
			<g>
				<path style="fill:#FFFFFF;" d="M380.704,197.586c-0.036,0.005-0.162-0.557-0.356-1.575c-0.184-1.02-0.499-2.487-0.94-4.284
					c-0.433-1.8-1.053-3.916-1.84-6.231c-0.813-2.306-1.808-4.805-3.018-7.355c-1.227-2.542-2.55-4.885-3.836-6.965
					c-1.309-2.066-2.569-3.876-3.698-5.342c-1.122-1.471-2.068-2.637-2.747-3.42c-0.671-0.79-1.03-1.24-1.003-1.265
					c0.027-0.025,0.437,0.377,1.158,1.127c0.728,0.743,1.722,1.877,2.889,3.326c1.174,1.445,2.475,3.245,3.816,5.311
					c1.318,2.081,2.665,4.436,3.902,6.998c1.219,2.57,2.208,5.095,3.002,7.426c0.768,2.34,1.354,4.482,1.743,6.303
					c0.397,1.818,0.657,3.303,0.779,4.336C380.684,197.009,380.74,197.581,380.704,197.586z"/>
			</g>
		</g>
		<g>
			<g>
				<path style="fill:#FFFFFF;" d="M359.012,200.208c-0.075-0.077,0.935-0.811,1.907-2.481c0.97-1.625,1.79-4.352,1.074-7.2
					c-0.739-2.843-2.768-4.841-4.399-5.802c-1.654-0.999-2.892-1.157-2.863-1.261c0.005-0.03,0.312-0.018,0.855,0.096
					c0.543,0.112,1.316,0.366,2.196,0.839c1.742,0.912,3.938,2.969,4.726,5.996c0.761,3.033-0.178,5.891-1.268,7.527
					c-0.545,0.838-1.101,1.431-1.523,1.79C359.295,200.074,359.031,200.232,359.012,200.208z"/>
			</g>
		</g>
		<g>
			<g>
				<path style="fill:#FFFFFF;" d="M309.171,198.368c-0.086-0.028,0.131-0.736,0.253-1.902c0.127-1.163,0.089-2.798-0.392-4.514
					c-0.49-1.715-1.316-3.127-2.034-4.05c-0.715-0.928-1.271-1.417-1.213-1.486c0.033-0.045,0.684,0.345,1.503,1.246
					c0.819,0.893,1.743,2.348,2.256,4.145c0.505,1.798,0.482,3.522,0.253,4.712C309.572,197.715,309.223,198.39,309.171,198.368z"/>
			</g>
		</g>
		<g>
			<g>
				<path style="fill:#FFFFFF;" d="M355.1,139.565c0.041-0.05,0.398,0.142,0.842,0.615c0.444,0.469,0.94,1.246,1.211,2.206
					c0.267,0.962,0.246,1.884,0.11,2.515c-0.134,0.635-0.34,0.985-0.4,0.963c-0.155-0.038,0.298-1.552-0.222-3.334
					C356.16,140.737,354.988,139.678,355.1,139.565z"/>
			</g>
		</g>
		<g>
			<g>
				<path style="fill:#FFFFFF;" d="M379.254,254.411c-0.146-0.066,0.526-1.613,0.718-3.642c0.215-2.027-0.136-3.676,0.02-3.712
					c0.125-0.05,0.733,1.625,0.509,3.765C380.295,252.964,379.367,254.486,379.254,254.411z"/>
			</g>
		</g>
		<g>
			<g>
				<path style="fill:#FFFFFF;" d="M387.563,301.273c-0.081-0.049,0.45-0.919,1.021-2.435c0.576-1.511,1.111-3.709,1.111-6.178
					c-0.012-2.47-0.558-4.665-1.142-6.173c-0.58-1.514-1.115-2.38-1.034-2.43c0.031-0.02,0.188,0.181,0.448,0.564
					c0.267,0.378,0.592,0.967,0.934,1.722c0.688,1.506,1.315,3.766,1.326,6.315c0.001,2.549-0.613,4.811-1.294,6.321
					c-0.337,0.757-0.659,1.348-0.925,1.727C387.75,301.091,387.594,301.293,387.563,301.273z"/>
			</g>
		</g>
		<g>
			<g>
				<path style="fill:#FFFFFF;" d="M358.258,333.909c-0.067-0.067,0.683-0.732,1.498-2.08c0.815-1.327,1.624-3.428,1.534-5.816
					c-0.096-2.388-1.066-4.42-1.982-5.68c-0.917-1.28-1.717-1.884-1.655-1.957c0.02-0.026,0.24,0.095,0.598,0.372
					c0.359,0.276,0.843,0.725,1.356,1.358c1.027,1.245,2.112,3.359,2.214,5.886c0.096,2.526-0.822,4.719-1.748,6.039
					c-0.462,0.671-0.91,1.156-1.247,1.459C358.49,333.795,358.28,333.934,358.258,333.909z"/>
			</g>
		</g>
		<g>
			<g>
				<path style="fill:#FFFFFF;" d="M360.341,357.368c-0.162-0.007-0.06-1.867-0.743-4.005c-0.656-2.147-1.799-3.617-1.67-3.715
					c0.086-0.101,1.481,1.291,2.178,3.557C360.823,355.463,360.469,357.402,360.341,357.368z"/>
			</g>
		</g>
		<g>
			<g>
				<path style="fill:#FFFFFF;" d="M320.646,322.736c-0.051-0.094,1.223-0.596,2.801-2.043c1.565-1.41,3.37-3.943,3.833-7.166
					c0.447-3.227-0.588-6.161-1.703-7.948c-1.116-1.826-2.202-2.661-2.127-2.738c0.02-0.024,0.304,0.161,0.761,0.566
					c0.459,0.404,1.068,1.058,1.683,1.97c1.231,1.789,2.381,4.834,1.912,8.224c-0.486,3.386-2.433,5.995-4.11,7.374
					c-0.843,0.707-1.609,1.167-2.162,1.428C320.982,322.665,320.658,322.764,320.646,322.736z"/>
			</g>
		</g>
		<g>
			<g>
				<path style="fill:#FFFFFF;" d="M326.721,389.855c-0.024-0.096,1.359-0.422,3.455-1.298c1.051-0.431,2.26-1.04,3.549-1.802
					c1.276-0.784,2.626-1.733,3.936-2.862c1.298-1.143,2.424-2.35,3.376-3.507c0.932-1.173,1.702-2.287,2.273-3.269
					c1.156-1.956,1.668-3.281,1.76-3.243c0.034,0.013-0.071,0.352-0.293,0.956c-0.211,0.608-0.597,1.459-1.141,2.473
					c-0.537,1.02-1.287,2.176-2.216,3.388c-0.948,1.195-2.087,2.437-3.411,3.603c-1.336,1.151-2.722,2.108-4.036,2.883
					c-1.328,0.753-2.575,1.337-3.66,1.729c-1.08,0.4-1.976,0.665-2.607,0.79C327.08,389.833,326.73,389.891,326.721,389.855z"/>
			</g>
		</g>
		<g>
			<g>
				<path style="fill:#FFFFFF;" d="M336.864,279.208c-0.081-0.15,2.441-1.237,4.667-3.668c2.259-2.402,3.154-4.998,3.31-4.928
					c0.128,0.006-0.57,2.784-2.92,5.29C339.598,278.431,336.879,279.335,336.864,279.208z"/>
			</g>
		</g>
		<g>
			<g>
				<path style="fill:#FFFFFF;" d="M300.827,229.905c-0.103-0.128,1.946-1.741,3.873-4.267c1.948-2.511,2.981-4.905,3.131-4.838
					c0.125,0.035-0.709,2.581-2.709,5.162C303.14,228.557,300.893,230.017,300.827,229.905z"/>
			</g>
		</g>
		<g style="opacity:0.2;">
			<g>
				<path style="fill:#FFFFFF;" d="M376.091,228.129c-1.24-0.902-3.049-0.501-4.262,0.438c-1.213,0.939-2.012,2.297-2.957,3.505
					c-4.122,5.265-4.448,10.591-10.992,11.965c-6.544,1.374-13.38,2.138-19.242,5.356c-1.465,0.804-2.959,1.906-3.339,3.533
					c-0.427,1.833,0.798,3.751,2.455,4.644c1.657,0.893,3.633,0.96,5.508,0.805c6.494-0.533,12.532-3.409,18.402-6.238
					c8.052-3.88,11.685-10.227,15.104-18.485C376.768,233.652,378.85,230.137,376.091,228.129z"/>
			</g>
		</g>
		<g style="opacity:0.2;">
			<g>
				<path style="fill:#FFFFFF;" d="M322.849,260.613l1.366-0.496c2.042,0.15,3.817,2,3.882,4.047
					c0.064,2.025-1.551,3.969-3.554,4.275c-2.003,0.306-4.126-1.067-4.668-3.02C319.305,263.362,320.731,260.887,322.849,260.613z"
					/>
			</g>
		</g>
	</g>
</g>
<g id="Brain_side_1">
	<g>
		<g>
			<g>
				<path style="fill:#455A64;" d="M135.46,152.566c0,0-4.574-5.227,3.267-17.969c7.841-12.742,7.514-17.642,17.969-21.563
					c10.455-3.921,12.742-6.534,19.929-12.088c7.188-5.554,22.543-24.83,46.719-18.949c24.176,5.881,18.805,27.444,19.53,38.552
					c0.726,11.108-1.706,29.731,0,39.532c1.706,9.801,1.888,23.85,0,29.73c-1.888,5.881,0,37.572,0,37.572v91.479
					c0,0,3.339,83.311-4.829,92.459c-8.168,9.148-24.88,20.256-48.868,12.088c-23.988-8.168-31.829-15.029-37.383-21.236
					c0,0-18.008-7.841-17.662-29.077c0,0-7.495-4.574-12.069-13.722c-4.574-9.148-10.455-15.355-11.761-24.177
					c-1.307-8.821,1.96-11.108,1.96-11.108s-3.921-1.307-5.554-13.068c-1.634-11.762-5.881-18.296-4.901-23.523
					c0.98-5.227,4.574-9.148,4.574-9.148s-3.231-1.634-4.719-7.841c-1.489-6.207-2.469-21.236-2.142-29.404
					c0.327-8.168,2.287-12.742,2.287-12.742s-0.98-23.523,7.514-26.79l3.594-1.634c0,0-3.594-2.94,0.327-10.128
					c3.92-7.188,3.267-16.009,6.861-21.889C123.698,162.04,127.292,151.586,135.46,152.566z"/>
			</g>
			<g>
				<g>
					<g style="opacity:0.3;">
						<path d="M133.64,316.468c0.05,0.014,0.078,0.022,0.099,0.028C133.714,316.488,133.679,316.479,133.64,316.468z"/>
					</g>
					<g style="opacity:0.3;">
						<path d="M133.74,316.496C133.774,316.505,133.784,316.508,133.74,316.496L133.74,316.496z"/>
					</g>
					<g style="opacity:0.3;">
						<path d="M133.64,316.468C133.523,316.435,133.406,316.403,133.64,316.468L133.64,316.468z"/>
					</g>
					<g style="opacity:0.3;">
						<path d="M132.006,324.406c0.322-2.673,1.077-5.293,1.634-7.938c-3.017,3.947-5.312,9.527-4.834,15.427
							c-2.79,0.319-6.648-1.667-7.843-1.99c3.303,3.889,11.015,8.529,12.148,13.23c1.183,4.906-4.992,9.124-2.488,14.589
							c1.776-1.579,0.96-2.794,1.34-4.621c1.935-9.301,12.54-8.715,17.445-7.463c-2.903-1.699-5.89-3.414-8.686-4.619
							C132.116,337.31,130.898,333.598,132.006,324.406z"/>
					</g>
					<g style="opacity:0.3;">
						<path d="M154.53,348.594c-0.48-0.264-0.971-0.543-1.465-0.826l6.727,6.408c1.604,0.556,4.863,1.558,10.638-2.144
							C160.541,355.773,158.618,350.846,154.53,348.594z"/>
					</g>
					<g style="opacity:0.3;">
						<path d="M149.408,345.64c1.242,0.727,2.467,1.448,3.657,2.128l-1.217-1.159C151.625,346.355,150.718,345.974,149.408,345.64z"
							/>
					</g>
				</g>
				<g style="opacity:0.3;">
					<path d="M169.456,391.933c5.225,5.175,9.64,11.64,15.761,15.003c5.778,3.174,13.349,3.086,19.936,5.304
						c-8.855,2.44-16.743,0.724-24.134-4.702c-6.809-4.999-13.901-9.631-21.025-14.179c-7.275-4.645-12.785-10.588-15.139-19.036
						c-0.385-1.38-0.054-2.958,1.643-4.896c0.742,1.963,1.649,3.881,2.197,5.896c2.081,7.649,7.029,12.885,14.034,16.049
						C164.86,392.334,167.662,391.817,169.456,391.933z"/>
				</g>
				<g style="opacity:0.3;">
					<path d="M214.911,164.827c-8.786,12.567,2.858,28.616-2.767,34.093c-0.575-1.592,0.789-3.38-0.175-4.6
						C204.189,184.47,206.902,169.724,214.911,164.827z"/>
				</g>
				<g style="opacity:0.3;">
					<path d="M219.598,389.437c-3.58,2.225-6.659,4.137-9.577,5.95c-3.939-1.845-8.167-3.826-12.702-5.95
						C204.887,389.437,212.193,389.437,219.598,389.437z"/>
				</g>
			</g>
			<g>
				<g>
					<path style="fill:#263238;" d="M244.01,283.66c0.003,0.009-0.118,0.057-0.359,0.144c-0.266,0.092-0.621,0.215-1.072,0.371
						c-0.483,0.162-1.066,0.358-1.75,0.587c-0.696,0.218-1.517,0.407-2.433,0.653c-3.666,0.922-9.128,1.897-15.928,1.705
						c-3.39-0.173-7.1-0.601-10.984-1.566c-3.866-1.008-7.892-2.572-11.739-4.915c-3.835-2.347-7.488-5.471-10.367-9.477
						c-2.676-4.148-4.212-9.026-6.79-13.458c-0.595-1.004-1.23-1.982-1.984-2.843c-0.746-0.868-1.606-1.653-2.409-2.461
						c-1.715-1.511-3.469-2.944-5.358-4.12c-3.733-2.416-7.699-4.194-11.624-5.463c-7.868-2.55-15.429-3.392-21.872-3.744
						l-0.147-0.008l-0.037-0.141c-1.004-3.833-1.934-7.298-2.884-10.303c-0.936-3.009-1.896-5.554-2.764-7.598
						c-0.87-2.045-1.656-3.585-2.201-4.624c-0.27-0.496-0.481-0.884-0.638-1.173c-0.142-0.265-0.211-0.404-0.203-0.409
						c0,0,1.426,2.04,3.246,6.116c0.903,2.038,1.896,4.582,2.863,7.59c0.981,3.005,1.939,6.47,2.967,10.297l-0.184-0.148
						c6.467,0.312,14.068,1.123,22.008,3.672c3.961,1.269,7.971,3.055,11.753,5.496c1.914,1.188,3.694,2.638,5.433,4.169
						c0.819,0.823,1.679,1.605,2.454,2.505c0.783,0.896,1.433,1.896,2.039,2.919c2.614,4.505,4.149,9.379,6.767,13.442
						c2.798,3.906,6.413,7.026,10.186,9.345c3.791,2.325,7.768,3.889,11.593,4.906c3.844,0.975,7.522,1.421,10.888,1.617
						c6.753,0.239,12.196-0.673,15.865-1.53c0.916-0.229,1.739-0.402,2.438-0.604c0.688-0.21,1.275-0.389,1.761-0.538
						c0.457-0.135,0.817-0.241,1.087-0.321C243.879,283.683,244.007,283.651,244.01,283.66z"/>
				</g>
			</g>
			<g>
				<g>
					<path style="fill:#263238;" d="M218.773,343.207c-0.091,0.008,0.219-1.498-0.486-4.052c-0.674-2.548-2.695-5.921-6.118-9.173
						c-1.697-1.638-3.738-3.245-5.851-5.07c-2.103-1.826-4.342-3.875-6.095-6.534c-0.868-1.326-1.6-2.807-2.086-4.395
						c-0.506-1.582-0.831-3.24-1.162-4.911c-0.331-1.671-0.666-3.369-1.215-5.02c-0.538-1.652-1.345-3.234-2.411-4.664
						c-2.121-2.88-4.999-5.023-7.988-6.581c-2.999-1.575-6.146-2.553-9.172-3.312c-6.072-1.471-11.696-2.257-16.245-3.691
						c-4.563-1.37-8.003-3.24-10.118-4.854c-2.139-1.598-3.024-2.801-3.024-2.801c0.007-0.006,0.078,0.053,0.209,0.174
						c0.152,0.144,0.341,0.324,0.575,0.546c0.517,0.466,1.28,1.155,2.362,1.914c2.134,1.549,5.56,3.346,10.104,4.661
						c4.527,1.378,10.135,2.122,16.254,3.576c3.048,0.751,6.24,1.73,9.295,3.326c3.043,1.58,5.99,3.762,8.176,6.728
						c1.097,1.471,1.934,3.114,2.484,4.812c0.562,1.695,0.896,3.414,1.224,5.086c0.327,1.673,0.646,3.311,1.135,4.858
						c0.471,1.553,1.171,2.982,2.012,4.28c1.696,2.599,3.892,4.638,5.974,6.469c2.092,1.832,4.124,3.459,5.824,5.134
						c3.424,3.318,5.433,6.781,6.056,9.388c0.355,1.294,0.361,2.345,0.383,3.042c-0.024,0.324-0.043,0.585-0.058,0.796
						C218.795,343.117,218.783,343.207,218.773,343.207z"/>
				</g>
			</g>
			<g>
				<g>
					<path style="fill:#263238;" d="M132.954,278.563c-0.014-0.066,0.76-0.313,2.048-0.563c1.287-0.251,3.092-0.481,5.096-0.524
						c2.005-0.04,3.818,0.116,5.115,0.314c1.297,0.197,2.081,0.412,2.069,0.479c-0.026,0.161-3.215-0.354-7.173-0.261
						C136.153,278.077,132.987,278.723,132.954,278.563z"/>
				</g>
			</g>
			<g>
				<g>
					<path style="fill:#263238;" d="M147.208,269.523c0.153,0.062-0.777,1.982-0.736,4.526c0.001,2.546,0.963,4.449,0.811,4.514
						c-0.097,0.092-1.335-1.81-1.342-4.509C145.903,271.355,147.11,269.433,147.208,269.523z"/>
				</g>
			</g>
			<g>
				<g>
					<path style="fill:#263238;" d="M170.329,329.905c-0.014,0.012-0.132-0.099-0.344-0.322c-0.205-0.23-0.539-0.545-0.895-1.011
						c-0.752-0.901-1.731-2.306-2.67-4.192c-0.943-1.881-1.782-4.277-2.209-7.037c-0.431-2.754-0.394-5.878,0.341-9.023
						c0.773-3.138,2.159-5.939,3.793-8.197c1.633-2.266,3.469-4.02,5.163-5.268c1.692-1.254,3.203-2.061,4.282-2.523
						c0.529-0.254,0.97-0.383,1.257-0.495c0.291-0.102,0.447-0.148,0.453-0.13c0.064,0.122-2.473,0.892-5.763,3.446
						c-1.639,1.267-3.413,3.017-4.992,5.253c-1.581,2.229-2.92,4.974-3.675,8.037c-0.717,3.071-0.77,6.124-0.373,8.827
						c0.391,2.709,1.178,5.074,2.063,6.947C168.53,327.987,170.442,329.825,170.329,329.905z"/>
				</g>
			</g>
			<g>
				<g>
					<path style="fill:#263238;" d="M171.188,351.352c0,0-0.67,0.861-2.307,1.917c-0.82,0.513-1.881,1.085-3.221,1.457
						c-1.327,0.371-2.965,0.564-4.681,0.096c-1.74-0.425-3.328-1.69-4.665-3.215c-1.37-1.505-2.611-3.316-4.402-4.649
						c-1.794-1.341-4.166-1.838-6.597-2.203c-1.221-0.192-2.479-0.379-3.739-0.695c-1.259-0.323-2.505-0.818-3.657-1.498
						c-1.165-0.66-2.214-1.486-3.127-2.412c-0.93-0.91-1.726-1.926-2.387-2.996c-1.358-2.123-2.159-4.463-2.541-6.738
						c-0.344-2.29-0.198-4.512,0.22-6.515c0.441-2.003,1.151-3.789,1.958-5.325c1.621-3.086,3.589-5.156,5.014-6.45
						c0.72-0.646,1.307-1.115,1.725-1.405c0.413-0.296,0.635-0.444,0.646-0.429c0.011,0.015-0.19,0.192-0.58,0.514
						c-0.395,0.316-0.957,0.809-1.65,1.472c-1.371,1.329-3.27,3.414-4.822,6.471c-0.773,1.521-1.448,3.281-1.861,5.243
						c-0.39,1.962-0.515,4.127-0.168,6.347c0.385,2.208,1.173,4.48,2.498,6.537c0.645,1.036,1.419,2.019,2.32,2.899
						c0.885,0.895,1.898,1.692,3.021,2.327c2.219,1.366,4.768,1.763,7.212,2.139c2.431,0.374,4.909,0.891,6.805,2.323
						c1.875,1.418,3.104,3.259,4.441,4.75c1.305,1.514,2.796,2.719,4.438,3.146c1.623,0.468,3.203,0.314,4.502-0.021
						c1.311-0.334,2.366-0.868,3.19-1.346C170.418,352.107,171.148,351.303,171.188,351.352z"/>
				</g>
			</g>
			<g>
				<g>
					<path style="fill:#263238;" d="M179.954,372.137c-0.002,0.032-0.324,0.046-0.903-0.004c-0.579-0.049-1.413-0.188-2.412-0.489
						c-1.986-0.583-4.658-1.98-6.72-4.459c-2.059-2.483-2.941-5.367-3.149-7.426c-0.112-1.037-0.096-1.883-0.038-2.46
						c0.057-0.578,0.129-0.891,0.162-0.888c0.099,0.005-0.064,1.285,0.249,3.298c0.298,1.996,1.207,4.751,3.186,7.137
						c1.981,2.383,4.522,3.783,6.429,4.442C178.68,371.964,179.967,372.038,179.954,372.137z"/>
				</g>
			</g>
			<g>
				<g>
					<path style="fill:#263238;" d="M213.889,407.441c0.007,0.017-0.259,0.149-0.775,0.386c-0.512,0.246-1.29,0.557-2.306,0.923
						c-2.033,0.707-5.081,1.542-8.948,1.79c-3.851,0.25-8.541-0.149-13.384-1.861c-4.819-1.72-9.751-4.771-13.742-9.155
						c-1.551-1.69-2.901-3.506-4.01-5.348l0.229,0.127c-5.167,0.071-9.936-1.597-13.548-4.017c-3.653-2.418-6.109-5.586-7.618-8.431
						c-1.522-2.865-2.152-5.421-2.439-7.171c-0.144-0.878-0.21-1.565-0.229-2.03c-0.023-0.465-0.027-0.708-0.01-0.709
						c0.016-0.001,0.053,0.24,0.107,0.7c0.05,0.46,0.146,1.139,0.317,2.005c0.342,1.726,1.018,4.237,2.559,7.039
						c1.53,2.784,3.972,5.866,7.569,8.21c3.558,2.347,8.236,3.958,13.283,3.878l0.151-0.003l0.078,0.13
						c1.095,1.811,2.426,3.597,3.952,5.26c3.929,4.317,8.777,7.333,13.515,9.053c4.762,1.711,9.385,2.146,13.198,1.946
						c3.828-0.198,6.863-0.969,8.904-1.611c1.019-0.334,1.806-0.612,2.33-0.826C213.6,407.524,213.882,407.425,213.889,407.441z"/>
				</g>
			</g>
			<g>
				<g>
					<path style="fill:#263238;" d="M131.27,361.454c-0.031,0.012-0.178-0.263-0.384-0.786c-0.207-0.523-0.452-1.303-0.651-2.293
						c-0.406-1.966-0.515-4.845,0.378-7.824c0.892-2.98,2.566-5.325,3.985-6.745c0.71-0.717,1.344-1.234,1.804-1.557
						c0.46-0.325,0.733-0.473,0.753-0.446c0.057,0.075-0.961,0.79-2.282,2.26c-1.32,1.455-2.888,3.758-3.75,6.64
						c-0.863,2.881-0.819,5.666-0.517,7.607C130.901,360.266,131.359,361.423,131.27,361.454z"/>
				</g>
			</g>
			<g>
				<g>
					<path style="fill:#263238;" d="M130.623,332.746c0.007,0.033-0.238,0.12-0.698,0.211c-0.459,0.093-1.138,0.168-1.98,0.146
						c-1.67-0.03-4.056-0.576-6.148-2.138c-2.09-1.566-3.288-3.701-3.788-5.294c-0.258-0.802-0.379-1.474-0.419-1.941
						c-0.042-0.467-0.027-0.726,0.006-0.729c0.094-0.013,0.178,1.021,0.767,2.543c0.574,1.51,1.769,3.509,3.753,4.995
						c1.986,1.483,4.24,2.065,5.851,2.188C129.593,332.864,130.608,332.652,130.623,332.746z"/>
				</g>
			</g>
			<g>
				<g>
					<path style="fill:#263238;" d="M126.875,275.075c0.08,0.061-0.974,1.394-2.334,3.754c-0.687,1.175-1.408,2.63-2.109,4.285
						c-0.675,1.666-1.316,3.538-1.813,5.552c-0.477,2.02-0.762,3.978-0.921,5.769c-0.131,1.793-0.154,3.416-0.078,4.775
						c0.134,2.721,0.463,4.387,0.364,4.405c-0.036,0.007-0.14-0.404-0.297-1.156c-0.169-0.75-0.327-1.854-0.442-3.225
						c-0.124-1.371-0.141-3.015-0.035-4.835c0.134-1.817,0.408-3.808,0.893-5.858c0.504-2.044,1.168-3.94,1.878-5.618
						c0.735-1.667,1.501-3.122,2.237-4.286c0.728-1.167,1.372-2.078,1.865-2.668C126.567,275.371,126.847,275.052,126.875,275.075z"
						/>
				</g>
			</g>
			<g style="opacity:0.3;">
				<g>
					<path d="M112.238,251.694c-0.813-4.784-0.612-10.22,2.266-14.128c-4.25,3.338-5.431,8.955-4.591,14.294
						c0.84,5.339,3.226,11.098,8.295,12.97C115.36,260.901,113.051,256.478,112.238,251.694z"/>
				</g>
			</g>
			<g>
				<g>
					<path style="fill:#263238;" d="M117.986,264.517c-0.016,0.026-0.407-0.17-1.063-0.608c-0.658-0.436-1.56-1.149-2.543-2.171
						c-1.963-2.008-4.164-5.497-4.732-9.843c-0.557-4.349,0.686-8.284,2.074-10.725c0.691-1.237,1.382-2.157,1.908-2.745
						c0.524-0.591,0.852-0.879,0.873-0.858c0.088,0.07-1.176,1.305-2.449,3.78c-1.275,2.437-2.418,6.27-1.879,10.48
						c0.549,4.207,2.628,7.624,4.48,9.656C116.517,263.554,118.053,264.427,117.986,264.517z"/>
				</g>
			</g>
			<g>
				<g>
					<path style="fill:#263238;" d="M140.608,209.33c-0.006,0.017-0.142-0.02-0.395-0.108c-0.248-0.1-0.637-0.201-1.09-0.437
						c-0.932-0.415-2.219-1.188-3.578-2.422c-1.361-1.227-2.742-2.98-3.752-5.199c-1.013-2.207-1.592-4.915-1.32-7.731
						c0.319-2.812,1.449-5.341,2.899-7.29c1.45-1.961,3.165-3.388,4.751-4.305c1.586-0.925,3.005-1.413,4.003-1.625
						c0.492-0.137,0.894-0.155,1.157-0.201c0.266-0.033,0.406-0.042,0.409-0.024c0.048,0.14-2.302,0.267-5.374,2.171
						c-1.524,0.936-3.166,2.355-4.551,4.272c-1.385,1.906-2.459,4.353-2.767,7.057c-0.26,2.708,0.28,5.324,1.239,7.476
						c0.956,2.163,2.266,3.892,3.563,5.125C138.411,208.591,140.684,209.204,140.608,209.33z"/>
				</g>
			</g>
			<g>
				<g>
					<path style="fill:#263238;" d="M170.82,228.204c-0.151,0.002,0.481-2.587-0.4-6.622c-0.43-2.002-1.301-4.321-2.771-6.595
						c-1.459-2.271-3.575-4.46-6.257-6.047c-2.708-1.545-5.658-2.299-8.354-2.442c-2.704-0.15-5.149,0.241-7.102,0.859
						c-3.941,1.233-5.878,3.064-5.95,2.932c-0.011-0.014,0.106-0.123,0.343-0.317c0.243-0.184,0.574-0.499,1.068-0.807
						c0.952-0.669,2.444-1.495,4.425-2.166c1.975-0.676,4.47-1.117,7.242-0.991c2.764,0.119,5.803,0.877,8.596,2.472
						c2.767,1.636,4.93,3.901,6.403,6.242c1.483,2.345,2.335,4.73,2.726,6.781c0.398,2.053,0.42,3.758,0.31,4.917
						c-0.023,0.582-0.133,1.026-0.172,1.328C170.874,228.051,170.838,228.207,170.82,228.204z"/>
				</g>
			</g>
			<g>
				<g>
					<path style="fill:#263238;" d="M194.578,139.019c0.005,0.005-0.03,0.061-0.105,0.167c-0.091,0.124-0.204,0.277-0.342,0.466
						c-0.308,0.406-0.754,1.013-1.312,1.817c-1.101,1.61-2.687,4.014-4.053,7.341c-1.325,3.299-2.484,7.654-1.768,12.529
						c0.19,1.209,0.493,2.435,0.908,3.66c0.437,1.217,0.999,2.424,1.7,3.585c1.406,2.312,3.462,4.407,6.081,5.745l0.441,0.225
						l-0.443,0.22c-3.028,1.505-6.001,3.548-8.513,6.223c-2.502,2.66-4.537,6.005-5.388,9.772c-0.718,3.32-0.416,6.778,0.724,9.796
						c1.13,3.023,3.178,5.593,5.744,7.13l0.264,0.158l-0.207,0.229c-2.082,2.306-3.274,5.181-3.729,8.009
						c-0.463,2.84-0.27,5.63,0.28,8.165c0.568,2.537,1.509,4.821,2.603,6.82c1.085,2.005,2.276,3.752,3.434,5.275
						c2.329,3.04,4.446,5.246,5.863,6.78c0.696,0.743,1.242,1.326,1.638,1.748c0.169,0.186,0.306,0.336,0.417,0.457
						c0.092,0.104,0.136,0.16,0.131,0.165c-0.005,0.005-0.06-0.04-0.162-0.135c-0.119-0.113-0.265-0.253-0.447-0.427
						c-0.41-0.409-0.976-0.973-1.698-1.692c-1.457-1.499-3.613-3.674-5.991-6.705c-1.182-1.519-2.401-3.268-3.515-5.287
						c-1.122-2.009-2.098-4.327-2.692-6.906c-0.576-2.578-0.79-5.421-0.328-8.335c0.454-2.9,1.669-5.876,3.823-8.274l0.057,0.387
						c-2.678-1.592-4.807-4.26-5.976-7.378c-1.18-3.113-1.492-6.668-0.752-10.095c0.878-3.886,2.969-7.306,5.527-10.018
						c2.568-2.725,5.594-4.793,8.673-6.311l-0.002,0.445c-2.711-1.395-4.822-3.569-6.253-5.948
						c-0.714-1.195-1.282-2.434-1.722-3.681c-0.417-1.255-0.718-2.509-0.904-3.744c-0.346-2.476-0.23-4.852,0.176-6.984
						c0.395-2.138,1.017-4.055,1.724-5.723c1.42-3.343,3.056-5.732,4.202-7.319c0.581-0.791,1.05-1.384,1.379-1.774
						c0.152-0.178,0.275-0.323,0.375-0.441C194.526,139.062,194.572,139.014,194.578,139.019z"/>
				</g>
			</g>
			<g>
				<g>
					<path style="fill:#263238;" d="M194.441,132.107c-0.009,0.016-0.252-0.088-0.705-0.3c-0.454-0.209-1.133-0.499-2.03-0.803
						c-1.788-0.602-4.507-1.218-7.895-1.081c-3.381,0.092-7.373,1.011-11.447,2.872c-4.076,1.848-8.26,4.544-12.361,7.685
						c-2.676,2.115-5.019,4.573-6.303,7.418c-1.297,2.815-1.581,5.935-0.649,8.453l0.201,0.544l-0.52-0.259
						c-2.513-1.254-4.918-2.195-7.118-2.793c-2.198-0.609-4.174-0.896-5.806-1.047c-1.634-0.15-2.926-0.172-3.807-0.19
						c-0.406-0.005-0.737-0.01-1.006-0.013c-0.228-0.006-0.346-0.016-0.346-0.028c0-0.012,0.117-0.027,0.344-0.045
						c0.269-0.015,0.601-0.033,1.007-0.056c0.883-0.027,2.181-0.048,3.83,0.064c1.647,0.112,3.65,0.366,5.882,0.951
						c2.234,0.574,4.679,1.5,7.225,2.745l-0.318,0.285c-1.003-2.646-0.717-5.907,0.614-8.824c1.324-2.96,3.729-5.479,6.439-7.622
						c4.142-3.172,8.348-5.865,12.491-7.715c4.133-1.859,8.204-2.757,11.637-2.801c3.44-0.09,6.189,0.594,7.975,1.262
						c0.897,0.337,1.567,0.661,2.009,0.902C194.224,131.955,194.45,132.091,194.441,132.107z"/>
				</g>
			</g>
			<g>
				<g>
					<path style="fill:#263238;" d="M166.005,122.263c-0.015,0.092-1.031-0.114-2.665-0.012c-1.621,0.091-3.889,0.59-5.981,1.934
						c-2.092,1.347-3.485,3.205-4.24,4.643c-0.769,1.446-1.003,2.456-1.093,2.431c-0.033-0.008-0.01-0.267,0.095-0.724
						c0.104-0.457,0.31-1.109,0.662-1.874c0.69-1.525,2.096-3.51,4.288-4.922c2.193-1.41,4.582-1.867,6.255-1.863
						c0.843-0.003,1.521,0.079,1.981,0.174C165.767,122.143,166.012,122.23,166.005,122.263z"/>
				</g>
			</g>
			<g>
				<g>
					<path style="fill:#263238;" d="M215.216,109.094c-0.003,0.147-1.969,0.22-4.39,0.164c-2.422-0.056-4.382-0.221-4.378-0.368
						c0.003-0.147,1.969-0.22,4.391-0.164C213.259,108.782,215.219,108.947,215.216,109.094z"/>
				</g>
			</g>
			<g>
				<g>
					<path style="fill:#263238;" d="M213.486,149.072c-0.016,0.009-0.115-0.146-0.289-0.452c-0.184-0.3-0.412-0.766-0.681-1.378
						c-0.529-1.225-1.115-3.1-1.3-5.499c-0.156-2.385,0.119-5.316,1.378-8.256c1.195-2.987,3.741-5.533,5.056-8.84
						c0.658-1.649,0.731-3.42,0.222-5.015c-0.473-1.605-1.268-3.065-1.798-4.569c-1.092-3.034-0.89-6.042-0.265-8.344
						c0.634-2.331,1.72-4,2.549-5.04c0.433-0.511,0.783-0.894,1.051-1.124c0.259-0.238,0.4-0.356,0.413-0.342
						c0.04,0.04-0.507,0.538-1.3,1.593c-0.766,1.062-1.777,2.725-2.349,5.009c-0.564,2.257-0.715,5.171,0.362,8.082
						c0.525,1.456,1.332,2.91,1.837,4.589c0.25,0.835,0.407,1.74,0.361,2.656c-0.039,0.916-0.254,1.828-0.585,2.695
						c-0.67,1.738-1.693,3.223-2.64,4.64c-0.96,1.414-1.854,2.784-2.463,4.207c-1.247,2.845-1.558,5.699-1.452,8.039
						c0.133,2.352,0.653,4.212,1.117,5.445C213.171,148.404,213.537,149.045,213.486,149.072z"/>
				</g>
			</g>
			<g>
				<g>
					<path style="fill:#263238;" d="M212.144,198.921c-0.048-0.018,0.173-0.469,0.242-1.338c0.073-0.863-0.089-2.145-0.745-3.561
						c-0.619-1.434-1.773-2.947-2.639-4.897c-0.879-1.928-1.521-4.204-1.731-6.644c-0.42-4.908,0.936-9.315,2.484-12.09
						c0.768-1.403,1.549-2.44,2.124-3.119c0.6-0.661,0.942-1.011,0.969-0.986c0.102,0.079-1.337,1.469-2.76,4.28
						c-1.436,2.771-2.696,7.083-2.287,11.869c0.205,2.38,0.816,4.6,1.648,6.49c0.809,1.897,1.938,3.446,2.536,4.947
						c0.636,1.486,0.748,2.842,0.607,3.734c-0.067,0.448-0.176,0.783-0.27,1C212.227,198.823,212.159,198.928,212.144,198.921z"/>
				</g>
			</g>
			<g>
				<g>
					<path style="fill:#263238;" d="M238.925,214.597c0.027,0.019-0.133,0.307-0.482,0.789c-0.348,0.482-0.908,1.143-1.691,1.869
						c-1.546,1.453-4.136,3.108-7.37,3.748c-3.236,0.638-6.261,0.092-8.243-0.664c-1-0.374-1.769-0.772-2.275-1.086
						c-0.506-0.312-0.763-0.519-0.746-0.546c0.048-0.086,1.155,0.634,3.143,1.276c1.968,0.648,4.897,1.113,8.017,0.498
						c3.119-0.617,5.651-2.16,7.225-3.508C238.099,215.622,238.848,214.536,238.925,214.597z"/>
				</g>
			</g>
			<g>
				<g>
					<path style="fill:#263238;" d="M205.289,249.638c0.016-0.05,0.33,0.099,0.913,0.072c0.581-0.013,1.402-0.276,2.301-0.833
						c1.78-1.162,4.174-2.936,6.609-5.109c2.443-2.174,4.446-4.362,5.835-5.994c1.387-1.636,2.189-2.699,2.257-2.651
						c0.03,0.021-0.137,0.311-0.467,0.817c-0.331,0.505-0.837,1.217-1.498,2.072c-1.324,1.705-3.305,3.957-5.772,6.153
						c-2.466,2.2-4.901,3.931-6.775,5.038c-0.956,0.537-1.865,0.768-2.492,0.714C205.569,249.878,205.276,249.653,205.289,249.638z"
						/>
				</g>
			</g>
			<g>
				<g>
					<path style="fill:#263238;" d="M221.113,256.602c-0.026,0.051-0.844-0.309-1.908-1.264c-1.058-0.941-2.317-2.555-2.977-4.656
						c-0.661-2.102-0.552-4.146-0.222-5.523c0.326-1.392,0.791-2.154,0.842-2.128c0.083,0.033-0.252,0.839-0.472,2.2
						c-0.226,1.351-0.267,3.295,0.36,5.292c0.628,1.995,1.773,3.567,2.731,4.545C220.427,256.059,221.162,256.528,221.113,256.602z"
						/>
				</g>
			</g>
			<g style="opacity:0.3;">
				<g>
					<path d="M141.163,209.088c6.164-3.353,14.101-3.169,20.104,0.464c6.002,3.634,9.845,10.582,9.732,17.597
						c1.686-5.699,0.421-12.187-3.283-16.835c-3.704-4.648-9.746-7.329-15.678-6.957c-3.829,0.24-7.718,1.656-11.408,0.607
						c-2.1-0.597-3.91-1.951-5.459-3.49c-2.212-2.198-4.071-5.106-3.817-8.214c0,0-2.249,7.008,2.042,11.29
						C137.686,207.833,141.163,209.088,141.163,209.088z"/>
				</g>
			</g>
			<g style="opacity:0.3;">
				<g>
					<path d="M160.297,136.786c-2.661,1.86-5.161,4.031-6.944,6.744c-1.783,2.713-2.803,6.022-2.338,9.234
						c-6.078-1.044-10.256-1.025-16.367-0.198c7.071,0.566,12.124,0.239,17.885,3.917c-0.458-5.211,1.69-10.445,5.137-14.379
						c3.448-3.934,8.098-6.666,12.98-8.542c4.883-1.876,10.03-2.951,15.151-4.018C176.822,128.607,167.697,131.613,160.297,136.786z
						"/>
				</g>
			</g>
			<g style="opacity:0.3;">
				<g>
					<path d="M215.375,109.036c-2.099-0.137-4.199-0.273-6.298-0.41c-0.924-0.06-1.894-0.135-2.669-0.643
						c1.671-0.578,3.461-0.809,5.223-0.672c0.343,0.027,0.704,0.064,1.019-0.076c0.464-0.206,0.686-0.724,0.895-1.187
						c0.971-2.153,2.539-4.032,4.483-5.372c0.031,1.485-0.788,2.834-1.509,4.134c-0.721,1.299-1.386,2.785-1.023,4.225"/>
				</g>
			</g>
			<g style="opacity:0.3;">
				<g>
					<path d="M215.821,243.73c-3.833,3.748-9.002,6.1-14.346,6.528c3.128,1.46,6.878,1.523,10.053,0.168
						c1.476,2.061,2.974,4.145,4.919,5.77c1.945,1.625,5.343,1.779,7.872,1.619c-2.22-1.33-5.461-1.769-6.73-4.024
						c-1.016-1.806-1.238-3.936-1.439-5.998c-0.163-1.673-0.246-3.588,0.94-4.779"/>
				</g>
			</g>
			<g style="opacity:0.3;">
				<g>
					<path d="M134.071,277.971c1.116-1.271,2.73-2.023,4.383-2.379c1.653-0.356,3.361-0.347,5.052-0.307
						c0.047-1.754,0.946-3.466,2.363-4.501c0.112-0.082,0.243-0.163,0.38-0.138c0.307,0.056,0.278,0.503,0.186,0.801
						c-0.587,1.902-0.416,4.026,0.468,5.81c0.127,0.257,0.249,0.616,0.02,0.789c-0.095,0.072-0.222,0.08-0.341,0.084
						c-2.09,0.078-4.174-0.217-6.26-0.363c-2.087-0.146-4.228-0.136-6.211,0.527"/>
				</g>
			</g>
			<g style="opacity:0.3;">
				<g>
					<path d="M218.817,338.275c-3.304-3.627-1.337-3.711-5.049-6.915c-9.014-7.777-10.524-10.273-14.815-16.118
						c-1.272-1.733-1.031-4.059-1.551-6.048c-0.637-2.439-0.524-5.812-1.81-7.435c-4.063-5.395-8.32-9.677-13.264-10.029
						c-2.805-1.799-8.262-3.2-11.14-3.583c-4.955-0.661-7.846-1.294-12.56-2.959c-4.714-1.665-8.344-3.237-11.525-7.094
						l-0.651,0.267c3.144,6.135,9.486,10.132,16.119,12.008c5.165,1.461,10.55,1.796,15.935,1.88
						c-0.646,0.217-1.299,0.478-1.97,0.837c-15.43,11.406-14.792,23.604-8.3,32.904c5.629,8.065,9.078,18.145,19.206,22.374
						c6.887,2.876,13.803,5.684,20.705,8.522c-1.348-2.408-3.2-4.792-5.635-5.974c-4.48-2.174-9.419-3.39-13.955-5.466
						c-6.376-2.918-11.585-6.923-10.289-15.512c-12.947-6.492-15.344-22.81-4.817-32.283c1.731-1.557,6.519-2.335,7.938-1.144
						c4.76,3.994,9.987,8.405,12.541,13.831c4.226,8.98,8.366,17.504,16.538,23.673c2.764,2.087,4.512,5.49,6.856,8.178
						c0.923,1.059,2.204,1.807,3.321,2.696C221.277,344.282,218.187,338.879,218.817,338.275z"/>
				</g>
			</g>
			<g style="opacity:0.3;">
				<g>
					<path d="M200.525,281.327c-7.773-4.275-12.434-12.947-16.141-20.256c1.9,10.302,8.217,20.279,17.575,24.989
						c9.358,4.709,20.919,4.769,30.325,0.157C221.443,286.459,210.026,286.552,200.525,281.327z"/>
				</g>
			</g>
		</g>
		<g style="opacity:0.2;">
			<g>
				<path style="fill:#FFFFFF;" d="M157.007,181.15c-1.309-0.738-2.826-1.08-4.344-1.154c-0.842-0.041-1.684,0.085-2.492,0.328
					c-2.917,0.878-5.827,1.816-8.512,3.249c-3.016,1.609-5.764,3.905-7.34,6.938c-0.815,1.568-1.261,3.582-0.25,5.031
					c0.784,1.125,2.278,1.59,3.643,1.46c1.365-0.13,2.629-0.763,3.811-1.46c4.106-2.423,7.726-5.79,12.246-7.305
					c2.051-0.687,4.61-1.303,5.037-3.533C159.079,183.284,158.267,181.861,157.007,181.15z"/>
			</g>
		</g>
		<g style="opacity:0.2;">
			<g>
				<path style="fill:#FFFFFF;" d="M182.19,135.069c-1.309-0.738-2.826-1.08-4.344-1.154c-0.842-0.041-1.684,0.085-2.492,0.328
					c-2.917,0.878-5.828,1.816-8.512,3.249c-3.016,1.609-5.764,3.905-7.339,6.938c-0.815,1.568-1.261,3.582-0.25,5.031
					c0.784,1.125,2.278,1.59,3.643,1.46c1.365-0.13,2.629-0.763,3.811-1.46c4.106-2.423,7.726-5.79,12.246-7.305
					c2.051-0.687,4.609-1.303,5.037-3.533C184.263,137.204,183.451,135.78,182.19,135.069z"/>
			</g>
		</g>
		<g style="opacity:0.2;">
			<g>
				<path style="fill:#FFFFFF;" d="M235.367,94.197c-1.085-2.171-1.952-4.836-4.037-6.079c-3.04-1.813-6.301-2.991-11.286-3.7l0,0
					c-8.737-1.302-17.32,3.098-24.415,8.359c-7.096,5.261-13.563,11.595-21.64,15.173c-1.104,0.489-2.249,0.934-3.193,1.687
					c-0.943,0.754-1.671,1.896-1.583,3.1c0.154,2.106,2.546,3.258,4.634,3.575c6.979,1.059,13.871-2.316,19.635-6.391
					c5.764-4.074,11.049-8.997,17.541-11.767c3.205-1.368,7.078-2.117,10.048-0.296c2.042,1.252,3.31,3.525,5.384,4.724
					c2.358,1.362,5.59,0.987,7.573-0.88C236.013,99.837,236.584,96.633,235.367,94.197z"/>
			</g>
		</g>
		<g>
			<g>
				<path style="fill:#FFFFFF;" d="M116.225,197.586c-0.036-0.005,0.019-0.577,0.152-1.609c0.122-1.033,0.382-2.518,0.779-4.336
					c0.389-1.821,0.975-3.962,1.743-6.303c0.793-2.332,1.783-4.857,3.002-7.426c1.237-2.562,2.583-4.917,3.902-6.998
					c1.341-2.066,2.642-3.866,3.816-5.311c1.167-1.45,2.16-2.583,2.889-3.326c0.721-0.75,1.131-1.152,1.158-1.127
					c0.027,0.025-0.332,0.475-1.003,1.265c-0.679,0.783-1.624,1.949-2.747,3.42c-1.13,1.466-2.389,3.276-3.698,5.342
					c-1.286,2.08-2.609,4.423-3.836,6.965c-1.209,2.549-2.205,5.049-3.018,7.355c-0.787,2.315-1.407,4.431-1.84,6.231
					c-0.441,1.797-0.757,3.264-0.94,4.284C116.386,197.029,116.261,197.591,116.225,197.586z"/>
			</g>
		</g>
		<g>
			<g>
				<path style="fill:#FFFFFF;" d="M137.917,200.208c-0.019,0.024-0.283-0.134-0.704-0.495c-0.423-0.359-0.979-0.952-1.523-1.79
					c-1.09-1.636-2.029-4.495-1.268-7.527c0.788-3.027,2.984-5.084,4.726-5.996c0.88-0.474,1.653-0.727,2.196-0.839
					c0.543-0.114,0.85-0.127,0.855-0.096c0.028,0.104-1.209,0.262-2.863,1.261c-1.631,0.96-3.66,2.958-4.399,5.802
					c-0.716,2.848,0.104,5.574,1.074,7.2C136.982,199.398,137.992,200.131,137.917,200.208z"/>
			</g>
		</g>
		<g>
			<g>
				<path style="fill:#FFFFFF;" d="M187.757,198.368c-0.052,0.021-0.401-0.653-0.626-1.849c-0.229-1.19-0.253-2.914,0.253-4.712
					c0.513-1.797,1.437-3.252,2.256-4.145c0.819-0.901,1.47-1.292,1.503-1.246c0.058,0.069-0.498,0.558-1.213,1.486
					c-0.718,0.923-1.544,2.335-2.034,4.05c-0.482,1.717-0.519,3.352-0.392,4.514C187.626,197.632,187.843,198.34,187.757,198.368z"
					/>
			</g>
		</g>
		<g>
			<g>
				<path style="fill:#FFFFFF;" d="M141.829,139.565c0.112,0.113-1.06,1.172-1.541,2.965c-0.52,1.783-0.068,3.296-0.222,3.334
					c-0.061,0.022-0.266-0.328-0.4-0.963c-0.136-0.631-0.157-1.553,0.11-2.515c0.271-0.96,0.767-1.737,1.211-2.206
					C141.431,139.707,141.788,139.515,141.829,139.565z"/>
			</g>
		</g>
		<g>
			<g>
				<path style="fill:#FFFFFF;" d="M117.674,254.411c-0.112,0.074-1.041-1.447-1.247-3.589c-0.224-2.141,0.385-3.816,0.509-3.765
					c0.156,0.036-0.195,1.685,0.02,3.712C117.148,252.799,117.82,254.346,117.674,254.411z"/>
			</g>
		</g>
		<g>
			<g>
				<path style="fill:#FFFFFF;" d="M109.366,301.273c-0.031,0.02-0.187-0.182-0.445-0.566c-0.266-0.379-0.587-0.97-0.925-1.727
					c-0.68-1.51-1.295-3.772-1.294-6.321c0.011-2.55,0.638-4.809,1.326-6.315c0.341-0.755,0.666-1.344,0.934-1.722
					c0.26-0.383,0.417-0.584,0.448-0.564c0.081,0.049-0.454,0.916-1.034,2.43c-0.584,1.508-1.13,3.704-1.142,6.173
					c-0.001,2.469,0.534,4.667,1.111,6.178C108.916,300.355,109.447,301.224,109.366,301.273z"/>
			</g>
		</g>
		<g>
			<g>
				<path style="fill:#FFFFFF;" d="M138.671,333.909c-0.022,0.025-0.232-0.114-0.568-0.418c-0.337-0.303-0.784-0.789-1.247-1.459
					c-0.927-1.321-1.844-3.513-1.748-6.039c0.101-2.527,1.187-4.641,2.214-5.886c0.513-0.632,0.997-1.082,1.356-1.358
					c0.358-0.277,0.578-0.398,0.598-0.372c0.062,0.072-0.738,0.677-1.655,1.957c-0.916,1.259-1.886,3.291-1.982,5.68
					c-0.09,2.388,0.719,4.489,1.533,5.816C137.988,333.177,138.738,333.841,138.671,333.909z"/>
			</g>
		</g>
		<g>
			<g>
				<path style="fill:#FFFFFF;" d="M136.588,357.368c-0.129,0.034-0.482-1.905,0.235-4.163c0.697-2.266,2.091-3.658,2.178-3.557
					c0.129,0.098-1.014,1.569-1.67,3.715C136.648,355.501,136.75,357.361,136.588,357.368z"/>
			</g>
		</g>
		<g>
			<g>
				<path style="fill:#FFFFFF;" d="M176.283,322.736c-0.012,0.029-0.336-0.07-0.889-0.334c-0.553-0.261-1.319-0.721-2.162-1.428
					c-1.678-1.379-3.624-3.987-4.111-7.374c-0.469-3.39,0.681-6.435,1.912-8.224c0.615-0.912,1.224-1.566,1.683-1.97
					c0.458-0.406,0.742-0.59,0.761-0.566c0.075,0.076-1.011,0.911-2.127,2.738c-1.115,1.787-2.149,4.721-1.702,7.948
					c0.463,3.223,2.268,5.757,3.833,7.166C175.059,322.14,176.334,322.642,176.283,322.736z"/>
			</g>
		</g>
		<g>
			<g>
				<path style="fill:#FFFFFF;" d="M170.207,389.855c-0.008,0.036-0.358-0.022-0.987-0.159c-0.631-0.125-1.527-0.391-2.607-0.79
					c-1.084-0.392-2.332-0.977-3.659-1.729c-1.314-0.775-2.7-1.732-4.036-2.883c-1.324-1.166-2.462-2.408-3.411-3.603
					c-0.928-1.212-1.678-2.367-2.216-3.388c-0.544-1.015-0.93-1.866-1.141-2.473c-0.221-0.604-0.327-0.943-0.293-0.956
					c0.092-0.037,0.604,1.287,1.76,3.243c0.571,0.982,1.341,2.095,2.272,3.269c0.952,1.157,2.078,2.363,3.376,3.507
					c1.31,1.129,2.66,2.078,3.936,2.862c1.29,0.762,2.499,1.371,3.549,1.802C168.849,389.434,170.232,389.759,170.207,389.855z"/>
			</g>
		</g>
		<g>
			<g>
				<path style="fill:#FFFFFF;" d="M160.065,279.207c-0.016,0.127-2.734-0.777-5.057-3.306c-2.35-2.506-3.048-5.284-2.92-5.29
					c0.156-0.07,1.05,2.526,3.31,4.928C157.624,277.971,160.146,279.058,160.065,279.207z"/>
			</g>
		</g>
		<g>
			<g>
				<path style="fill:#FFFFFF;" d="M196.101,229.905c-0.066,0.113-2.313-1.348-4.294-3.942c-2-2.582-2.835-5.127-2.709-5.162
					c0.15-0.066,1.183,2.327,3.131,4.838C194.155,228.164,196.204,229.777,196.101,229.905z"/>
			</g>
		</g>
		<g style="opacity:0.2;">
			<g>
				<path style="fill:#FFFFFF;" d="M120.838,228.129c1.24-0.902,3.049-0.501,4.262,0.438c1.213,0.939,2.012,2.297,2.958,3.505
					c4.122,5.265,4.448,10.591,10.992,11.965c6.544,1.374,13.38,2.138,19.242,5.356c1.465,0.804,2.96,1.906,3.339,3.533
					c0.427,1.833-0.798,3.751-2.455,4.644c-1.657,0.893-3.632,0.96-5.508,0.805c-6.494-0.533-12.532-3.409-18.402-6.238
					c-8.052-3.88-11.685-10.227-15.104-18.485C120.161,233.652,118.079,230.137,120.838,228.129z"/>
			</g>
		</g>
		<g style="opacity:0.2;">
			<g>
				<path style="fill:#FFFFFF;" d="M174.079,260.613l-1.367-0.496c-2.042,0.15-3.817,2-3.882,4.047
					c-0.065,2.025,1.551,3.969,3.554,4.275c2.003,0.306,4.126-1.067,4.668-3.02C177.624,263.362,176.198,260.887,174.079,260.613z"
					/>
			</g>
		</g>
	</g>
</g>
</svg>
